<svg xmlns="http://www.w3.org/2000/svg" xmlns:xlink="http://www.w3.org/1999/xlink" contentStyleType="text/css" data-diagram-type="SEQUENCE" height="410px" preserveAspectRatio="none" style="width:666px;height:410px;background:#FFFFFF;" version="1.1" viewBox="0 0 666 410" width="666px" zoomAndPan="magnify"><defs/><g><g><title>WebApp</title><rect fill="#FFFFFF" height="164.7578" style="stroke:#181818;stroke-width:1;" width="10" x="278.0781" y="114.9609"/></g><g><title>Officer</title><rect fill="#000000" fill-opacity="0.00000" height="245.4609" width="8" x="24.6138" y="82.6094"/><line style="stroke:#181818;stroke-width:0.5;stroke-dasharray:5,5;" x1="28" x2="28" y1="82.6094" y2="328.0703"/></g><g><title>WebApp</title><rect fill="#000000" fill-opacity="0.00000" height="245.4609" width="8" x="279.0781" y="82.6094"/><line style="stroke:#181818;stroke-width:0.5;stroke-dasharray:5,5;" x1="282.23" x2="282.23" y1="82.6094" y2="328.0703"/></g><g><title>DB</title><rect fill="#000000" fill-opacity="0.00000" height="245.4609" width="8" x="577.5532" y="82.6094"/><line style="stroke:#181818;stroke-width:0.5;stroke-dasharray:5,5;" x1="580.8291" x2="580.8291" y1="82.6094" y2="328.0703"/></g><g><title>Mailer</title><rect fill="#000000" fill-opacity="0.00000" height="245.4609" width="8" x="630.3359" y="82.6094"/><line style="stroke:#181818;stroke-width:0.5;stroke-dasharray:5,5;" x1="634.2773" x2="634.2773" y1="82.6094" y2="328.0703"/></g><g class="participant participant-head" data-participant="Officer"><text fill="#000000" font-family="sans-serif" font-size="14" lengthAdjust="spacing" textLength="41.2275" x="5" y="79.5332">Officer</text><ellipse cx="28.6138" cy="13.5" fill="#E2E2F0" rx="8" ry="8" style="stroke:#181818;stroke-width:0.5;"/><path d="M28.6138,21.5 L28.6138,48.5 M15.6138,29.5 L41.6138,29.5 M28.6138,48.5 L15.6138,63.5 M28.6138,48.5 L41.6138,63.5" fill="none" style="stroke:#181818;stroke-width:0.5;"/></g><g class="participant participant-tail" data-participant="Officer"><text fill="#000000" font-family="sans-serif" font-size="14" lengthAdjust="spacing" textLength="41.2275" x="5" y="341.6035">Officer</text><ellipse cx="28.6138" cy="353.1797" fill="#E2E2F0" rx="8" ry="8" style="stroke:#181818;stroke-width:0.5;"/><path d="M28.6138,361.1797 L28.6138,388.1797 M15.6138,369.1797 L41.6138,369.1797 M28.6138,388.1797 L15.6138,403.1797 M28.6138,388.1797 L41.6138,403.1797" fill="none" style="stroke:#181818;stroke-width:0.5;"/></g><g class="participant participant-head" data-participant="WebApp"><rect fill="#E2E2F0" height="31.6094" rx="2.5" ry="2.5" style="stroke:#181818;stroke-width:0.5;" width="67.6963" x="249.23" y="50"/><text fill="#000000" font-family="sans-serif" font-size="14" lengthAdjust="spacing" textLength="53.6963" x="256.23" y="71.5332">WebApp</text></g><g class="participant participant-tail" data-participant="WebApp"><rect fill="#E2E2F0" height="31.6094" rx="2.5" ry="2.5" style="stroke:#181818;stroke-width:0.5;" width="67.6963" x="249.23" y="327.0703"/><text fill="#000000" font-family="sans-serif" font-size="14" lengthAdjust="spacing" textLength="53.6963" x="256.23" y="348.6035">WebApp</text></g><g class="participant participant-head" data-participant="DB"><rect fill="#E2E2F0" height="31.6094" rx="2.5" ry="2.5" style="stroke:#181818;stroke-width:0.5;" width="33.4482" x="564.8291" y="50"/><text fill="#000000" font-family="sans-serif" font-size="14" lengthAdjust="spacing" textLength="19.4482" x="571.8291" y="71.5332">DB</text></g><g class="participant participant-tail" data-participant="DB"><rect fill="#E2E2F0" height="31.6094" rx="2.5" ry="2.5" style="stroke:#181818;stroke-width:0.5;" width="33.4482" x="564.8291" y="327.0703"/><text fill="#000000" font-family="sans-serif" font-size="14" lengthAdjust="spacing" textLength="19.4482" x="571.8291" y="348.6035">DB</text></g><g class="participant participant-head" data-participant="Mailer"><rect fill="#E2E2F0" height="31.6094" rx="2.5" ry="2.5" style="stroke:#181818;stroke-width:0.5;" width="52.1172" x="608.2773" y="50"/><text fill="#000000" font-family="sans-serif" font-size="14" lengthAdjust="spacing" textLength="38.1172" x="615.2773" y="71.5332">Mailer</text></g><g class="participant participant-tail" data-participant="Mailer"><rect fill="#E2E2F0" height="31.6094" rx="2.5" ry="2.5" style="stroke:#181818;stroke-width:0.5;" width="52.1172" x="608.2773" y="327.0703"/><text fill="#000000" font-family="sans-serif" font-size="14" lengthAdjust="spacing" textLength="38.1172" x="615.2773" y="348.6035">Mailer</text></g><g><title>WebApp</title><rect fill="#FFFFFF" height="164.7578" style="stroke:#181818;stroke-width:1;" width="10" x="278.0781" y="114.9609"/></g><g class="message" data-participant-1="Officer" data-participant-2="WebApp"><polygon fill="#181818" points="266.0781,110.9609,276.0781,114.9609,266.0781,118.9609,270.0781,114.9609" style="stroke:#181818;stroke-width:1;"/><line style="stroke:#181818;stroke-width:1;" x1="28.6138" x2="272.0781" y1="114.9609" y2="114.9609"/><text fill="#000000" font-family="sans-serif" font-size="13" lengthAdjust="spacing" textLength="230.4644" x="35.6138" y="110.1045">POST /officer/create_event (form or file)</text></g><g class="message" data-participant-1="WebApp" data-participant-2="DB"><polygon fill="#181818" points="569.5532,141.3125,579.5532,145.3125,569.5532,149.3125,573.5532,145.3125" style="stroke:#181818;stroke-width:1;"/><line style="stroke:#181818;stroke-width:1;" x1="288.0781" x2="575.5532" y1="145.3125" y2="145.3125"/><text fill="#000000" font-family="sans-serif" font-size="13" lengthAdjust="spacing" textLength="84.5254" x="295.0781" y="140.4561">INSERT Event</text></g><g class="message" data-participant-1="WebApp" data-participant-2="DB"><polygon fill="#181818" points="569.5532,171.6641,579.5532,175.6641,569.5532,179.6641,573.5532,175.6641" style="stroke:#181818;stroke-width:1;"/><line style="stroke:#181818;stroke-width:1;" x1="288.0781" x2="575.5532" y1="175.6641" y2="175.6641"/><text fill="#000000" font-family="sans-serif" font-size="13" lengthAdjust="spacing" textLength="52.7109" x="295.0781" y="170.8076">COMMIT</text></g><g class="message" data-participant-1="WebApp" data-participant-2="WebApp"><line style="stroke:#181818;stroke-width:1;" x1="288.0781" x2="330.0781" y1="206.0156" y2="206.0156"/><line style="stroke:#181818;stroke-width:1;" x1="330.0781" x2="330.0781" y1="206.0156" y2="219.0156"/><line style="stroke:#181818;stroke-width:1;" x1="289.0781" x2="330.0781" y1="219.0156" y2="219.0156"/><polygon fill="#181818" points="299.0781,215.0156,289.0781,219.0156,299.0781,223.0156,295.0781,219.0156" style="stroke:#181818;stroke-width:1;"/><text fill="#000000" font-family="sans-serif" font-size="13" lengthAdjust="spacing" textLength="264.4751" x="295.0781" y="201.1592">generate JWT logging links for each volunteer</text></g><g class="message" data-participant-1="WebApp" data-participant-2="Mailer"><polygon fill="#181818" points="622.3359,245.3672,632.3359,249.3672,622.3359,253.3672,626.3359,249.3672" style="stroke:#181818;stroke-width:1;"/><line style="stroke:#181818;stroke-width:1;" x1="288.0781" x2="628.3359" y1="249.3672" y2="249.3672"/><text fill="#000000" font-family="sans-serif" font-size="13" lengthAdjust="spacing" textLength="179.207" x="295.0781" y="244.5107">send_email(link) [async queue]</text></g><g class="message" data-participant-1="Mailer" data-participant-2="WebApp"><polygon fill="#181818" points="294.0781,275.7188,284.0781,279.7188,294.0781,283.7188,290.0781,279.7188" style="stroke:#181818;stroke-width:1;"/><line style="stroke:#181818;stroke-width:1;stroke-dasharray:2,2;" x1="288.0781" x2="633.3359" y1="279.7188" y2="279.7188"/><text fill="#000000" font-family="sans-serif" font-size="13" lengthAdjust="spacing" textLength="85.2935" x="300.0781" y="274.8623">queued / failed</text></g><g class="message" data-participant-1="WebApp" data-participant-2="Officer"><polygon fill="#181818" points="39.6138,306.0703,29.6138,310.0703,39.6138,314.0703,35.6138,310.0703" style="stroke:#181818;stroke-width:1;"/><line style="stroke:#181818;stroke-width:1;stroke-dasharray:2,2;" x1="33.6138" x2="282.0781" y1="310.0703" y2="310.0703"/><text fill="#000000" font-family="sans-serif" font-size="13" lengthAdjust="spacing" textLength="201.627" x="45.6138" y="305.2139">render page with sent/failed counts</text></g><!--SRC=[TP0nRy8m48Lt_uetme2oPwW4XO5A8QX4OgWgv3hdO3NOhkEawh_lkGagLEfatJr_xzsTLD45b5eRHK5u6Q9HnaiRSQItfVTthVNghYoaQHaI4ut5mmJbs9U72faRXKm5af5ED11JC-t21HogcPuBgQ8PMBtcZK_oMgzoR7U7pNE5JIB_I8zbKMohc-Orko5B8Ja-7IkqhccCRT0Q-zw1eq5IdJ6ujhUHUFfVVbmdHqUsFj65grcYvdYHtPTL-EYffrSnViFY9l57gP519wqMDVst5KFJjN84pc4ZBnl2fudd51opqGBAyNoT-0O0]--></g></svg>