<svg xmlns="http://www.w3.org/2000/svg" xmlns:xlink="http://www.w3.org/1999/xlink" contentStyleType="text/css" data-diagram-type="SEQUENCE" height="459px" preserveAspectRatio="none" style="width:866px;height:459px;background:#FFFFFF;" version="1.1" viewBox="0 0 866 459" width="866px" zoomAndPan="magnify"><defs/><g><g><title>WebApp</title><rect fill="#FFFFFF" height="214.4609" style="stroke:#181818;stroke-width:1;" width="10" x="367.707" y="114.9609"/></g><rect fill="none" height="139.7578" style="stroke:#000000;stroke-width:1.5;" width="531.6001" x="328.8589" y="129.9609"/><g><title>Officer</title><rect fill="#000000" fill-opacity="0.00000" height="295.1641" width="8" x="24.6138" y="82.6094"/><line style="stroke:#181818;stroke-width:0.5;stroke-dasharray:5,5;" x1="28" x2="28" y1="82.6094" y2="377.7734"/></g><g><title>WebApp</title><rect fill="#000000" fill-opacity="0.00000" height="295.1641" width="8" x="368.707" y="82.6094"/><line style="stroke:#181818;stroke-width:0.5;stroke-dasharray:5,5;" x1="371.8589" x2="371.8589" y1="82.6094" y2="377.7734"/></g><g><title>DB</title><rect fill="#000000" fill-opacity="0.00000" height="295.1641" width="8" x="829.7349" y="82.6094"/><line style="stroke:#181818;stroke-width:0.5;stroke-dasharray:5,5;" x1="833.0107" x2="833.0107" y1="82.6094" y2="377.7734"/></g><g class="participant participant-head" data-participant="Officer"><text fill="#000000" font-family="sans-serif" font-size="14" lengthAdjust="spacing" textLength="41.2275" x="5" y="79.5332">Officer</text><ellipse cx="28.6138" cy="13.5" fill="#E2E2F0" rx="8" ry="8" style="stroke:#181818;stroke-width:0.5;"/><path d="M28.6138,21.5 L28.6138,48.5 M15.6138,29.5 L41.6138,29.5 M28.6138,48.5 L15.6138,63.5 M28.6138,48.5 L41.6138,63.5" fill="none" style="stroke:#181818;stroke-width:0.5;"/></g><g class="participant participant-tail" data-participant="Officer"><text fill="#000000" font-family="sans-serif" font-size="14" lengthAdjust="spacing" textLength="41.2275" x="5" y="391.3066">Officer</text><ellipse cx="28.6138" cy="402.8828" fill="#E2E2F0" rx="8" ry="8" style="stroke:#181818;stroke-width:0.5;"/><path d="M28.6138,410.8828 L28.6138,437.8828 M15.6138,418.8828 L41.6138,418.8828 M28.6138,437.8828 L15.6138,452.8828 M28.6138,437.8828 L41.6138,452.8828" fill="none" style="stroke:#181818;stroke-width:0.5;"/></g><g class="participant participant-head" data-participant="WebApp"><rect fill="#E2E2F0" height="31.6094" rx="2.5" ry="2.5" style="stroke:#181818;stroke-width:0.5;" width="67.6963" x="338.8589" y="50"/><text fill="#000000" font-family="sans-serif" font-size="14" lengthAdjust="spacing" textLength="53.6963" x="345.8589" y="71.5332">WebApp</text></g><g class="participant participant-tail" data-participant="WebApp"><rect fill="#E2E2F0" height="31.6094" rx="2.5" ry="2.5" style="stroke:#181818;stroke-width:0.5;" width="67.6963" x="338.8589" y="376.7734"/><text fill="#000000" font-family="sans-serif" font-size="14" lengthAdjust="spacing" textLength="53.6963" x="345.8589" y="398.3066">WebApp</text></g><g class="participant participant-head" data-participant="DB"><rect fill="#E2E2F0" height="31.6094" rx="2.5" ry="2.5" style="stroke:#181818;stroke-width:0.5;" width="33.4482" x="817.0107" y="50"/><text fill="#000000" font-family="sans-serif" font-size="14" lengthAdjust="spacing" textLength="19.4482" x="824.0107" y="71.5332">DB</text></g><g class="participant participant-tail" data-participant="DB"><rect fill="#E2E2F0" height="31.6094" rx="2.5" ry="2.5" style="stroke:#181818;stroke-width:0.5;" width="33.4482" x="817.0107" y="376.7734"/><text fill="#000000" font-family="sans-serif" font-size="14" lengthAdjust="spacing" textLength="19.4482" x="824.0107" y="398.3066">DB</text></g><g><title>WebApp</title><rect fill="#FFFFFF" height="214.4609" style="stroke:#181818;stroke-width:1;" width="10" x="367.707" y="114.9609"/></g><g class="message" data-participant-1="Officer" data-participant-2="WebApp"><polygon fill="#181818" points="355.707,110.9609,365.707,114.9609,355.707,118.9609,359.707,114.9609" style="stroke:#181818;stroke-width:1;"/><line style="stroke:#181818;stroke-width:1;" x1="28.6138" x2="361.707" y1="114.9609" y2="114.9609"/><text fill="#000000" font-family="sans-serif" font-size="13" lengthAdjust="spacing" textLength="320.0933" x="35.6138" y="110.1045">POST /officer/approvals (approve_selected, entry_ids[])</text></g><path d="M328.8589,129.9609 L401.2935,129.9609 L401.2935,138.3125 L391.2935,148.3125 L328.8589,148.3125 L328.8589,129.9609" fill="#EEEEEE" style="stroke:#000000;stroke-width:1.5;"/><rect fill="none" height="139.7578" style="stroke:#000000;stroke-width:1.5;" width="531.6001" x="328.8589" y="129.9609"/><text fill="#000000" font-family="sans-serif" font-size="13" font-weight="bold" lengthAdjust="spacing" textLength="27.4346" x="343.8589" y="144.4561">loop</text><text fill="#000000" font-family="sans-serif" font-size="11" font-weight="bold" lengthAdjust="spacing" textLength="95.9653" x="416.2935" y="143.3799">[for each entry_id]</text><g class="message" data-participant-1="WebApp" data-participant-2="DB"><polygon fill="#181818" points="821.7349,166.6641,831.7349,170.6641,821.7349,174.6641,825.7349,170.6641" style="stroke:#181818;stroke-width:1;"/><line style="stroke:#181818;stroke-width:1;" x1="377.707" x2="827.7349" y1="170.6641" y2="170.6641"/><text fill="#000000" font-family="sans-serif" font-size="13" lengthAdjust="spacing" textLength="208.0825" x="384.707" y="165.8076">SELECT BulkSubmissionEntry by id</text></g><g class="message" data-participant-1="DB" data-participant-2="WebApp"><polygon fill="#181818" points="388.707,197.0156,378.707,201.0156,388.707,205.0156,384.707,201.0156" style="stroke:#181818;stroke-width:1;"/><line style="stroke:#181818;stroke-width:1;stroke-dasharray:2,2;" x1="382.707" x2="832.7349" y1="201.0156" y2="201.0156"/><text fill="#000000" font-family="sans-serif" font-size="13" lengthAdjust="spacing" textLength="28.9009" x="394.707" y="196.1592">entry</text></g><g class="message" data-participant-1="WebApp" data-participant-2="DB"><polygon fill="#181818" points="821.7349,227.3672,831.7349,231.3672,821.7349,235.3672,825.7349,231.3672" style="stroke:#181818;stroke-width:1;"/><line style="stroke:#181818;stroke-width:1;" x1="377.707" x2="827.7349" y1="231.3672" y2="231.3672"/><text fill="#000000" font-family="sans-serif" font-size="13" lengthAdjust="spacing" textLength="228.6489" x="384.707" y="226.5107">INSERT TimeLog (status=APPROVED)</text></g><g class="message" data-participant-1="WebApp" data-participant-2="DB"><polygon fill="#181818" points="821.7349,257.7188,831.7349,261.7188,821.7349,265.7188,825.7349,261.7188" style="stroke:#181818;stroke-width:1;"/><line style="stroke:#181818;stroke-width:1;" x1="377.707" x2="827.7349" y1="261.7188" y2="261.7188"/><text fill="#000000" font-family="sans-serif" font-size="13" lengthAdjust="spacing" textLength="309.4863" x="384.707" y="256.8623">UPDATE BulkSubmissionEntry.status = 'APPROVED'</text></g><g class="message" data-participant-1="WebApp" data-participant-2="DB"><polygon fill="#181818" points="821.7349,295.0703,831.7349,299.0703,821.7349,303.0703,825.7349,299.0703" style="stroke:#181818;stroke-width:1;"/><line style="stroke:#181818;stroke-width:1;" x1="377.707" x2="827.7349" y1="299.0703" y2="299.0703"/><text fill="#000000" font-family="sans-serif" font-size="13" lengthAdjust="spacing" textLength="432.0278" x="384.707" y="294.2139">UPDATE BulkSubmission.status (PARTIALLY_APPROVED / APPROVED)</text></g><g class="message" data-participant-1="WebApp" data-participant-2="DB"><polygon fill="#181818" points="821.7349,325.4219,831.7349,329.4219,821.7349,333.4219,825.7349,329.4219" style="stroke:#181818;stroke-width:1;"/><line style="stroke:#181818;stroke-width:1;" x1="372.707" x2="827.7349" y1="329.4219" y2="329.4219"/><text fill="#000000" font-family="sans-serif" font-size="13" lengthAdjust="spacing" textLength="52.7109" x="379.707" y="324.5654">COMMIT</text></g><g class="message" data-participant-1="WebApp" data-participant-2="Officer"><polygon fill="#181818" points="39.6138,355.7734,29.6138,359.7734,39.6138,363.7734,35.6138,359.7734" style="stroke:#181818;stroke-width:1;"/><line style="stroke:#181818;stroke-width:1;stroke-dasharray:2,2;" x1="33.6138" x2="371.707" y1="359.7734" y2="359.7734"/><text fill="#000000" font-family="sans-serif" font-size="13" lengthAdjust="spacing" textLength="138.0044" x="45.6138" y="354.917">redirect / flash message</text></g><!--SRC=[ZP7FQuCm5CVl-IlUhHRMUHSwqEf1i5CqsnXZI8pFDanDI6AX__rigzkwxh1RoFjyV_0UurPgI9j6SDH4CMq55uhr5bwmyfMw-We3GYOKLWyJuK6M5XHSUHcuJ2aj3wmru5oUM1fiaLkixm1xgu-bgCtR-v8mRiM1MPoZMYaLD6CTP7p_XHAOvgV8CF2WY99eGo4OsezYg3fXZ91zTAAXEi9P40Qm-b7mR7NZ4pyMKKw1YWuJkGF7M6O7i_QpB4-Vet1v8tZAGfz6VmNVNxImXiKiNn3iQ_8FWrdhP7vEOpz9NilP0rpuRdDjjKctsvYI6dylSSP6RZgL1nfheSSBZ7vDoymUEZI6xP1y0W00]--></g></svg>