<svg xmlns="http://www.w3.org/2000/svg" xmlns:xlink="http://www.w3.org/1999/xlink" contentStyleType="text/css" data-diagram-type="DESCRIPTION" height="667px" preserveAspectRatio="none" style="width:1132px;height:667px;background:#FFFFFF;" version="1.1" viewBox="0 0 1132 667" width="1132px" zoomAndPan="magnify"><defs/><g><!--cluster Bulk Submission--><g class="cluster" data-entity="Bulk Submission" data-source-line="7" data-uid="ent0006" id="cluster_Bulk Submission"><path d="M131.5,89.5 L246.0723,89.5 A3.75,3.75 0 0 1 248.5723,92 L255.5723,113.1094 L326.5,113.1094 A2.5,2.5 0 0 1 329,115.6094 L329,248 A2.5,2.5 0 0 1 326.5,250.5 L131.5,250.5 A2.5,2.5 0 0 1 129,248 L129,92 A2.5,2.5 0 0 1 131.5,89.5" fill="none" style="stroke:#000000;stroke-width:1.5;"/><line style="stroke:#000000;stroke-width:1.5;" x1="129" x2="255.5723" y1="113.1094" y2="113.1094"/><text fill="#000000" font-family="sans-serif" font-size="14" font-weight="bold" lengthAdjust="spacing" textLength="113.5723" x="133" y="106.0332">Bulk Submission</text></g><!--cluster Approval--><g class="cluster" data-entity="Approval" data-source-line="12" data-uid="ent0009" id="cluster_Approval"><path d="M500.5,89.5 L562.1758,89.5 A3.75,3.75 0 0 1 564.6758,92 L571.6758,113.1094 L714.5,113.1094 A2.5,2.5 0 0 1 717,115.6094 L717,327 A2.5,2.5 0 0 1 714.5,329.5 L500.5,329.5 A2.5,2.5 0 0 1 498,327 L498,92 A2.5,2.5 0 0 1 500.5,89.5" fill="none" style="stroke:#000000;stroke-width:1.5;"/><line style="stroke:#000000;stroke-width:1.5;" x1="498" x2="571.6758" y1="113.1094" y2="113.1094"/><text fill="#000000" font-family="sans-serif" font-size="14" font-weight="bold" lengthAdjust="spacing" textLength="60.6758" x="502" y="106.0332">Approval</text></g><!--cluster Events--><g class="cluster" data-entity="Events" data-source-line="18" data-uid="ent0013" id="cluster_Events"><path d="M533,555.5 L579.9102,555.5 A3.75,3.75 0 0 1 582.4102,558 L589.4102,579.1094 L1110.5,579.1094 A2.5,2.5 0 0 1 1113,581.6094 L1113,658 A2.5,2.5 0 0 1 1110.5,660.5 L533,660.5 A2.5,2.5 0 0 1 530.5,658 L530.5,558 A2.5,2.5 0 0 1 533,555.5" fill="none" style="stroke:#000000;stroke-width:1.5;"/><line style="stroke:#000000;stroke-width:1.5;" x1="530.5" x2="589.4102" y1="579.1094" y2="579.1094"/><text fill="#000000" font-family="sans-serif" font-size="14" font-weight="bold" lengthAdjust="spacing" textLength="45.9102" x="534.5" y="572.0332">Events</text></g><!--cluster Timelogs--><g class="cluster" data-entity="Timelogs" data-source-line="23" data-uid="ent0016" id="cluster_Timelogs"><path d="M914.5,309.5 L976.9551,309.5 A3.75,3.75 0 0 1 979.4551,312 L986.4551,333.1094 L1122.5,333.1094 A2.5,2.5 0 0 1 1125,335.6094 L1125,471 A2.5,2.5 0 0 1 1122.5,473.5 L914.5,473.5 A2.5,2.5 0 0 1 912,471 L912,312 A2.5,2.5 0 0 1 914.5,309.5" fill="none" style="stroke:#000000;stroke-width:1.5;"/><line style="stroke:#000000;stroke-width:1.5;" x1="912" x2="986.4551" y1="333.1094" y2="333.1094"/><text fill="#000000" font-family="sans-serif" font-size="14" font-weight="bold" lengthAdjust="spacing" textLength="61.4551" x="916" y="326.0332">Timelogs</text></g><!--entity UC1--><g class="entity" data-entity="UC1" data-source-line="8" data-uid="ent0007" id="entity_UC1"><ellipse cx="228.7513" cy="143.2503" fill="#F1F1F1" rx="74.2513" ry="17.2503" style="stroke:#181818;stroke-width:0.5;"/><text fill="#000000" font-family="sans-serif" font-size="14" lengthAdjust="spacing" textLength="112.0479" x="172.7273" y="148.5549">Upload Hours File</text></g><!--entity UC2--><g class="entity" data-entity="UC2" data-source-line="9" data-uid="ent0008" id="entity_UC2"><ellipse cx="229.0701" cy="215.714" fill="#F1F1F1" rx="84.0701" ry="19.214" style="stroke:#181818;stroke-width:0.5;"/><text fill="#000000" font-family="sans-serif" font-size="14" lengthAdjust="spacing" textLength="136.1514" x="160.9944" y="221.0187">View My Submissions</text></g><!--entity UC3--><g class="entity" data-entity="UC3" data-source-line="13" data-uid="ent0010" id="entity_UC3"><ellipse cx="607.2909" cy="143.5582" fill="#F1F1F1" rx="78.2909" ry="18.0582" style="stroke:#181818;stroke-width:0.5;"/><text fill="#000000" font-family="sans-serif" font-size="14" lengthAdjust="spacing" textLength="122.1582" x="546.2118" y="148.8629">Review Submission</text></g><!--entity UC4--><g class="entity" data-entity="UC4" data-source-line="14" data-uid="ent0011" id="entity_UC4"><ellipse cx="607.4288" cy="217.5858" fill="#F1F1F1" rx="93.4288" ry="21.0858" style="stroke:#181818;stroke-width:0.5;"/><text fill="#000000" font-family="sans-serif" font-size="14" lengthAdjust="spacing" textLength="157.9785" x="528.4395" y="222.8904">Approve Selected Entries</text></g><!--entity UC5--><g class="entity" data-entity="UC5" data-source-line="15" data-uid="ent0012" id="entity_UC5"><ellipse cx="607.5402" cy="293.508" fill="#F1F1F1" rx="88.0402" ry="20.008" style="stroke:#181818;stroke-width:0.5;"/><text fill="#000000" font-family="sans-serif" font-size="14" lengthAdjust="spacing" textLength="145.5166" x="534.7819" y="298.8127">Reject Selected Entries</text></g><!--entity UC6--><g class="entity" data-entity="UC6" data-source-line="19" data-uid="ent0014" id="entity_UC6"><ellipse cx="607.2777" cy="619.4517" fill="#F1F1F1" rx="60.7777" ry="15.4517" style="stroke:#181818;stroke-width:0.5;"/><text fill="#000000" font-family="sans-serif" font-size="14" lengthAdjust="spacing" textLength="81.71" x="566.4227" y="624.7564">Create Event</text></g><!--entity UC7--><g class="entity" data-entity="UC7" data-source-line="20" data-uid="ent0015" id="entity_UC7"><ellipse cx="1018.6268" cy="609.6254" fill="#F1F1F1" rx="78.6268" ry="18.1254" style="stroke:#181818;stroke-width:0.5;"/><text fill="#000000" font-family="sans-serif" font-size="14" lengthAdjust="spacing" textLength="122.9854" x="957.1341" y="614.93">Send Logging Links</text></g><!--entity UC8--><g class="entity" data-entity="UC8" data-source-line="24" data-uid="ent0017" id="entity_UC8"><ellipse cx="1018.2958" cy="439.5592" fill="#F1F1F1" rx="75.7958" ry="17.5592" style="stroke:#181818;stroke-width:0.5;"/><text fill="#000000" font-family="sans-serif" font-size="14" lengthAdjust="spacing" textLength="115.9512" x="960.3202" y="444.8639">Log Hours via Link</text></g><!--entity UC9--><g class="entity" data-entity="UC9" data-source-line="25" data-uid="ent0018" id="entity_UC9"><ellipse cx="1018.3734" cy="366.4747" fill="#F1F1F1" rx="90.3734" ry="20.4747" style="stroke:#181818;stroke-width:0.5;"/><text fill="#000000" font-family="sans-serif" font-size="14" lengthAdjust="spacing" textLength="150.9443" x="942.9012" y="371.7794">Officer Approve Timelog</text></g><!--entity ClubLeader--><g class="entity" data-entity="ClubLeader" data-source-line="2" data-uid="ent0002" id="entity_ClubLeader"><ellipse cx="44.1377" cy="144" fill="#F1F1F1" rx="8" ry="8" style="stroke:#181818;stroke-width:0.5;"/><path d="M44.1377,152 L44.1377,179 M31.1377,160 L57.1377,160 M44.1377,179 L31.1377,194 M44.1377,179 L57.1377,194" fill="none" style="stroke:#181818;stroke-width:0.5;"/><text fill="#000000" font-family="sans-serif" font-size="14" lengthAdjust="spacing" textLength="76.2754" x="6" y="210.0332">Club Leader</text></g><!--entity Officer--><g class="entity" data-entity="Officer" data-source-line="3" data-uid="ent0003" id="entity_Officer"><ellipse cx="229.1138" cy="308" fill="#F1F1F1" rx="8" ry="8" style="stroke:#181818;stroke-width:0.5;"/><path d="M229.1138,316 L229.1138,343 M216.1138,324 L242.1138,324 M229.1138,343 L216.1138,358 M229.1138,343 L242.1138,358" fill="none" style="stroke:#181818;stroke-width:0.5;"/><text fill="#000000" font-family="sans-serif" font-size="14" lengthAdjust="spacing" textLength="41.2275" x="208.5" y="374.0332">Officer</text></g><!--entity Volunteer--><g class="entity" data-entity="Volunteer" data-source-line="4" data-uid="ent0004" id="entity_Volunteer"><ellipse cx="607.4653" cy="428" fill="#F1F1F1" rx="8" ry="8" style="stroke:#181818;stroke-width:0.5;"/><path d="M607.4653,436 L607.4653,463 M594.4653,444 L620.4653,444 M607.4653,463 L594.4653,478 M607.4653,463 L620.4653,478" fill="none" style="stroke:#181818;stroke-width:0.5;"/><text fill="#000000" font-family="sans-serif" font-size="14" lengthAdjust="spacing" textLength="59.9307" x="577.5" y="494.0332">Volunteer</text></g><!--entity Admin--><g class="entity" data-entity="Admin" data-source-line="5" data-uid="ent0005" id="entity_Admin"><ellipse cx="43.8413" cy="14" fill="#F1F1F1" rx="8" ry="8" style="stroke:#181818;stroke-width:0.5;"/><path d="M43.8413,22 L43.8413,49 M30.8413,30 L56.8413,30 M43.8413,49 L30.8413,64 M43.8413,49 L56.8413,64" fill="none" style="stroke:#181818;stroke-width:0.5;"/><text fill="#000000" font-family="sans-serif" font-size="14" lengthAdjust="spacing" textLength="39.6826" x="24" y="80.0332">Admin</text></g><!--entity Manage Users--><g class="entity" data-entity="Manage Users" data-source-line="37" data-uid="ent0028" id="entity_Manage Users"><ellipse cx="228.826" cy="44.6652" fill="#F1F1F1" rx="66.326" ry="15.6652" style="stroke:#181818;stroke-width:0.5;"/><text fill="#000000" font-family="sans-serif" font-size="14" lengthAdjust="spacing" textLength="91.041" x="183.3055" y="49.9699">Manage Users</text></g><g class="entity" data-entity="GMN33" data-source-line="44" data-uid="ent0034" id="entity_GMN33"><path d="M926,122 L926,139.5 L686.39,143.5 L926,147.5 L926,164.7031 A0,0 0 0 0 926,164.7031 L1110.9917,164.7031 A0,0 0 0 0 1110.9917,164.7031 L1110.9917,132 L1100.9917,122 L926,122 A0,0 0 0 0 926,122" fill="#FEFFDD" style="stroke:#181818;stroke-width:0.5;"/><path d="M1100.9917,122 L1100.9917,132 L1110.9917,132 L1100.9917,122" fill="#FEFFDD" style="stroke:#181818;stroke-width:0.5;"/><text fill="#000000" font-family="sans-serif" font-size="13" lengthAdjust="spacing" textLength="163.9917" x="932" y="140.4951">Officers inspect per-member</text><text fill="#000000" font-family="sans-serif" font-size="13" lengthAdjust="spacing" textLength="150.3125" x="932" y="156.8467">entries and approve/reject</text></g><!--link ClubLeader to UC1--><g class="link" data-entity-1="ClubLeader" data-entity-2="UC1" data-source-line="28" data-uid="lnk19" id="link_ClubLeader_UC1"><path d="M82.03,168.23 C106.68,164.05 133.7042,159.4716 162.0542,154.6716" fill="none" id="ClubLeader-to-UC1" style="stroke:#181818;stroke-width:1;"/><polygon fill="#181818" points="167.97,153.67,158.4285,151.2286,163.0402,154.5047,159.764,159.1163,167.97,153.67" style="stroke:#181818;stroke-width:1;"/></g><!--link ClubLeader to UC2--><g class="link" data-entity-1="ClubLeader" data-entity-2="UC2" data-source-line="29" data-uid="lnk20" id="link_ClubLeader_UC2"><path d="M82.03,182.8 C106.89,188.37 134.3253,194.5078 162.8353,200.8978" fill="none" id="ClubLeader-to-UC2" style="stroke:#181818;stroke-width:1;"/><polygon fill="#181818" points="168.69,202.21,160.7827,196.3385,163.811,201.1165,159.0331,204.1448,168.69,202.21" style="stroke:#181818;stroke-width:1;"/></g><!--link Officer to UC3--><g class="link" data-entity-1="Officer" data-entity-2="UC3" data-source-line="30" data-uid="lnk21" id="link_Officer_UC3"><path d="M249.63,320.08 C271.65,300.04 309.02,267.88 345,245.5 C405.28,208.01 423.62,203.66 490,178.5 C511.13,170.49 529.1848,164.722 549.7548,158.792" fill="none" id="Officer-to-UC3" style="stroke:#181818;stroke-width:1;"/><polygon fill="#181818" points="555.52,157.13,545.7642,155.7796,550.7157,158.515,547.9802,163.4665,555.52,157.13" style="stroke:#181818;stroke-width:1;"/></g><!--link Officer to UC4--><g class="link" data-entity-1="Officer" data-entity-2="UC4" data-source-line="31" data-uid="lnk22" id="link_Officer_UC4"><path d="M249.69,329.66 C272.38,319.66 310.95,303.24 345,291.5 C412.25,268.33 485.1608,248.281 538.5308,234.491" fill="none" id="Officer-to-UC4" style="stroke:#181818;stroke-width:1;"/><polygon fill="#181818" points="544.34,232.99,534.6255,231.3687,539.499,234.2408,536.6269,239.1143,544.34,232.99" style="stroke:#181818;stroke-width:1;"/></g><!--link Officer to UC5--><g class="link" data-entity-1="Officer" data-entity-2="UC5" data-source-line="32" data-uid="lnk23" id="link_Officer_UC5"><path d="M249.71,336.14 C301,330.01 434.8324,314.0221 523.4324,303.4321" fill="none" id="Officer-to-UC5" style="stroke:#181818;stroke-width:1;"/><polygon fill="#181818" points="529.39,302.72,519.9789,299.8164,524.4253,303.3134,520.9283,307.7599,529.39,302.72" style="stroke:#181818;stroke-width:1;"/></g><!--link Officer to UC6--><g class="link" data-entity-1="Officer" data-entity-2="UC6" data-source-line="33" data-uid="lnk24" id="link_Officer_UC6"><path d="M237.3,377.7 C249.53,431.64 279.57,527.6 345,576.5 C404.24,620.78 486.1934,626.6032 543.4434,624.6632" fill="none" id="Officer-to-UC6" style="stroke:#181818;stroke-width:1;"/><polygon fill="#181818" points="549.44,624.46,540.3097,620.7671,544.4429,624.6293,540.5806,628.7625,549.44,624.46" style="stroke:#181818;stroke-width:1;"/></g><!--link Officer to UC9--><g class="link" data-entity-1="Officer" data-entity-2="UC9" data-source-line="34" data-uid="lnk25" id="link_Officer_UC9"><path d="M249.86,339.21 C343.95,342.55 741.8138,356.6968 922.9738,363.1368" fill="none" id="Officer-to-UC9" style="stroke:#181818;stroke-width:1;"/><polygon fill="#181818" points="928.97,363.35,920.1178,359.0328,923.9732,363.1724,919.8336,367.0277,928.97,363.35" style="stroke:#181818;stroke-width:1;"/></g><!--link Officer to UC7--><g class="link" data-entity-1="Officer" data-entity-2="UC7" data-source-line="35" data-uid="lnk26" id="link_Officer_UC7"><path d="M249.53,356.06 C290.7,392.04 390.79,474.13 490,514.5 C659.81,583.61 715.58,554.94 896,587.5 C915.62,591.04 931.1163,593.8394 950.4163,597.3394" fill="none" id="Officer-to-UC7" style="stroke:#181818;stroke-width:1;"/><polygon fill="#181818" points="956.32,598.41,948.1782,592.8683,951.4002,597.5178,946.7507,600.7399,956.32,598.41" style="stroke:#181818;stroke-width:1;"/></g><!--link Volunteer to UC8--><g class="link" data-entity-1="Volunteer" data-entity-2="UC8" data-source-line="36" data-uid="lnk27" id="link_Volunteer_UC8"><path d="M637.59,457.15 C700.82,454.21 846.4765,447.4486 937.9065,443.1986" fill="none" id="Volunteer-to-UC8" style="stroke:#181818;stroke-width:1;"/><polygon fill="#181818" points="943.9,442.92,934.724,439.3422,938.9054,443.1522,935.0954,447.3336,943.9,442.92" style="stroke:#181818;stroke-width:1;"/></g><!--link Admin to Manage Users--><g class="link" data-entity-1="Admin" data-entity-2="Manage Users" data-source-line="37" data-uid="lnk29" id="link_Admin_Manage Users"><path d="M64.24,44.5 C87.36,44.5 121.4,44.5 156.09,44.5" fill="none" id="Admin-to-Manage Users" style="stroke:#181818;stroke-width:1;"/><polygon fill="#181818" points="162.09,44.5,153.09,40.5,157.09,44.5,153.09,48.5,162.09,44.5" style="stroke:#181818;stroke-width:1;"/></g><!--link UC1 to UC3--><g class="link" data-entity-1="UC1" data-entity-2="UC3" data-source-line="39" data-uid="lnk30" id="link_UC1_UC3"><path d="M303.94,143.5 C368.82,143.5 456.88,143.5 522.85,143.5" fill="none" id="UC1-to-UC3" style="stroke:#181818;stroke-width:1;stroke-dasharray:7,7;"/><polygon fill="#181818" points="528.85,143.5,519.85,139.5,523.85,143.5,519.85,147.5,528.85,143.5" style="stroke:#181818;stroke-width:1;"/><text fill="#000000" font-family="sans-serif" font-size="13" lengthAdjust="spacing" textLength="135.1416" x="346" y="139.9951">creates pending entries</text></g><!--link UC4 to UC9--><g class="link" data-entity-1="UC4" data-entity-2="UC9" data-source-line="40" data-uid="lnk31" id="link_UC4_UC9"><path d="M662.62,234.56 C682.33,240.93 704.74,248.35 725,255.5 C813.36,286.66 909.8664,324.0237 967.0664,346.5237" fill="none" id="UC4-to-UC9" style="stroke:#181818;stroke-width:1;stroke-dasharray:7,7;"/><polygon fill="#181818" points="972.65,348.72,965.7389,341.7031,967.997,346.8897,962.8104,349.1479,972.65,348.72" style="stroke:#181818;stroke-width:1;"/><text fill="#000000" font-family="sans-serif" font-size="13" lengthAdjust="spacing" textLength="161.1416" x="734" y="257.9951">creates approved TimeLogs</text></g><!--link UC6 to UC7--><g class="link" data-entity-1="UC6" data-entity-2="UC7" data-source-line="41" data-uid="lnk32" id="link_UC6_UC7"><path d="M668.41,618.04 C740.41,616.27 855.3718,613.4666 934.3118,611.5366" fill="none" id="UC6-to-UC7" style="stroke:#181818;stroke-width:1;stroke-dasharray:7,7;"/><polygon fill="#181818" points="940.31,611.39,931.2149,607.6112,935.3115,611.5122,931.4105,615.6088,940.31,611.39" style="stroke:#181818;stroke-width:1;"/><text fill="#000000" font-family="sans-serif" font-size="13" lengthAdjust="spacing" textLength="139.8198" x="745" y="609.9951">generates links + emails</text></g><!--SRC=[TLDDJyCm3BtdLrWxWT26sCO-E22DQOZ39YJ6TizQjuIbIPMaHGZntqdIT6H5tFBYvsVdsU6O6J0I5ClV3AHCOMAO58GcHYheBNbrW3NI55KFg0Q76zWodhEC9I4QpcreBtab38RW2RNXHLemuKF-H4X9aoFD4NeF5J_2jZeKJ6lRJ0- -242bCQ7QHdSbbpI59raf3O-CezVOBMzYqfxX1sm-8nKTQ4Fo7PLQbAMIDUMT6YzOEu6u1vyyYabDBi8MkNKDKrW9enYsXSRdWk-Myn_rzgodLOt2w4v7IuNK8FXOo9h4yIsA5DOopvd8OSt4iTMUdcc_iWAvpBlgDZ4OMZFgqqFsB6Q5-KBxy20Mg7DNw7T1eD-_zrFvSpKahL23Hnqyxk3R3fvqyBo3f-IqQ-5cHloAUNIneS9PiTEez2KXjaKO37mVS0U9jrb3QUrqJc8p9yiQ1zOyOj76YDGxOJrql4dWJIqlHu7ACxcR25m15fHnJOYGTfZDfvDPMApm2WrCwD9jIucgNs1ni7y6saw0sZc7kjVARnLnetU2v0S0]--></g></svg>