<svg xmlns="http://www.w3.org/2000/svg" xmlns:xlink="http://www.w3.org/1999/xlink" contentStyleType="text/css" data-diagram-type="DESCRIPTION" height="455px" preserveAspectRatio="none" style="width:4048px;height:455px;background:#FFFFFF;" version="1.1" viewBox="0 0 4048 455" width="4048px" zoomAndPan="magnify"><title>AUIB VMS - Use Case Diagram (System)</title><defs/><g><g class="title" data-source-line="2"><text fill="#000000" font-family="sans-serif" font-size="14" font-weight="bold" lengthAdjust="spacing" textLength="266.8613" x="1883.6675" y="24.5332">AUIB VMS - Use Case Diagram (System)</text></g><!--cluster VMS (system boundary)--><g class="cluster" data-entity="VMS .system boundary." data-source-line="11" data-uid="ent0007" id="cluster_VMS .system boundary."><rect fill="none" height="139" rx="2.5" ry="2.5" style="stroke:#181818;stroke-width:1;" width="3157" x="7" y="186.1094"/><text fill="#000000" font-family="sans-serif" font-size="14" font-weight="bold" lengthAdjust="spacing" textLength="159.4756" x="1505.7622" y="202.6426">VMS (system boundary)</text></g><!--entity UC_CreateEvent--><g class="entity" data-entity="UC_CreateEvent" data-source-line="12" data-uid="ent0008" id="entity_UC_CreateEvent"><ellipse cx="679.0097" cy="275.4113" fill="#F1F1F1" rx="119.5097" ry="26.3019" style="stroke:#181818;stroke-width:0.5;"/><text fill="#000000" font-family="sans-serif" font-size="14" lengthAdjust="spacing" textLength="81.71" x="638.1547" y="267.6983">Create Event</text><text fill="#000000" font-family="sans-serif" font-size="14" lengthAdjust="spacing" textLength="190.6611" x="583.6791" y="285.3077">(parse attendee list, validation)</text></g><!--entity UC_GenerateLinks--><g class="entity" data-entity="UC_GenerateLinks" data-source-line="13" data-uid="ent0009" id="entity_UC_GenerateLinks"><ellipse cx="1023.02" cy="275.5134" fill="#F1F1F1" rx="132.52" ry="28.904" style="stroke:#181818;stroke-width:0.5;"/><text fill="#000000" font-family="sans-serif" font-size="14" lengthAdjust="spacing" textLength="185.2129" x="930.4135" y="271.5126">Generate Per-Volunteer Links</text><text fill="#000000" font-family="sans-serif" font-size="14" lengthAdjust="spacing" textLength="194.5029" x="925.7685" y="289.1219">(JWT tokens, expiry, metadata)</text></g><!--entity UC_SendEmails--><g class="entity" data-entity="UC_SendEmails" data-source-line="14" data-uid="ent0010" id="entity_UC_SendEmails"><ellipse cx="3019.0907" cy="275.8275" fill="#F1F1F1" rx="129.0907" ry="28.2181" style="stroke:#181818;stroke-width:0.5;"/><text fill="#000000" font-family="sans-serif" font-size="14" lengthAdjust="spacing" textLength="142.4131" x="2947.8842" y="269.1249">Send Volunteer Emails</text><text fill="#000000" font-family="sans-serif" font-size="14" lengthAdjust="spacing" textLength="206.9785" x="2915.6015" y="286.7343">(queued/async or fallback SMTP)</text></g><!--entity UC_SignIn--><g class="entity" data-entity="UC_SignIn" data-source-line="15" data-uid="ent0011" id="entity_UC_SignIn"><ellipse cx="409.1084" cy="275.5311" fill="#F1F1F1" rx="115.1084" ry="25.4217" style="stroke:#181818;stroke-width:0.5;"/><text fill="#000000" font-family="sans-serif" font-size="14" lengthAdjust="spacing" textLength="206.2061" x="306.0054" y="280.8357">Sign In via Token / Passwordless</text></g><!--entity UC_StopSign--><g class="entity" data-entity="UC_StopSign" data-source-line="16" data-uid="ent0012" id="entity_UC_StopSign"><ellipse cx="140.9912" cy="275.6076" fill="#F1F1F1" rx="117.9912" ry="25.9982" style="stroke:#181818;stroke-width:0.5;"/><text fill="#000000" font-family="sans-serif" font-size="14" lengthAdjust="spacing" textLength="212.4609" x="34.7607" y="280.9123">Stop Logging / Complete TimeLog</text></g><!--entity UC_ApproveTimelog--><g class="entity" data-entity="UC_ApproveTimelog" data-source-line="17" data-uid="ent0013" id="entity_UC_ApproveTimelog"><ellipse cx="1311.8421" cy="275.6778" fill="#F1F1F1" rx="120.8421" ry="26.5684" style="stroke:#181818;stroke-width:0.5;"/><text fill="#000000" font-family="sans-serif" font-size="14" lengthAdjust="spacing" textLength="218.6201" x="1202.532" y="280.9825">Approve / Reject Timelogs (Officer)</text></g><!--entity UC_ManageUsers--><g class="entity" data-entity="UC_ManageUsers" data-source-line="18" data-uid="ent0014" id="entity_UC_ManageUsers"><ellipse cx="1596.9599" cy="275.7014" fill="#F1F1F1" rx="128.4599" ry="28.092" style="stroke:#181818;stroke-width:0.5;"/><text fill="#000000" font-family="sans-serif" font-size="14" lengthAdjust="spacing" textLength="234.9648" x="1479.4775" y="281.006">Manage Users (CRUD, roles, disable)</text></g><!--entity UC_Settings--><g class="entity" data-entity="UC_Settings" data-source-line="19" data-uid="ent0015" id="entity_UC_Settings"><ellipse cx="2700.0137" cy="275.5121" fill="#F1F1F1" rx="155.0137" ry="33.4027" style="stroke:#181818;stroke-width:0.5;"/><text fill="#000000" font-family="sans-serif" font-size="14" lengthAdjust="spacing" textLength="290.999" x="2554.5142" y="280.8168">Manage System Settings (SMTP, token expiry)</text></g><!--entity UC_ViewEmailLogs--><g class="entity" data-entity="UC_ViewEmailLogs" data-source-line="20" data-uid="ent0016" id="entity_UC_ViewEmailLogs"><ellipse cx="2403.8621" cy="275.6818" fill="#F1F1F1" rx="105.8621" ry="23.5724" style="stroke:#181818;stroke-width:0.5;"/><text fill="#000000" font-family="sans-serif" font-size="14" lengthAdjust="spacing" textLength="185.9307" x="2310.8968" y="280.9865">View Email Logs (filters, retry)</text></g><!--entity UC_PasswordReset--><g class="entity" data-entity="UC_PasswordReset" data-source-line="21" data-uid="ent0017" id="entity_UC_PasswordReset"><ellipse cx="2137.8348" cy="275.4763" fill="#F1F1F1" rx="124.8348" ry="27.367" style="stroke:#181818;stroke-width:0.5;"/><text fill="#000000" font-family="sans-serif" font-size="14" lengthAdjust="spacing" textLength="227.2061" x="2024.2317" y="280.781">Password Reset (request &amp; set new)</text></g><!--entity UC_Audit--><g class="entity" data-entity="UC_Audit" data-source-line="22" data-uid="ent0018" id="entity_UC_Audit"><ellipse cx="1869.2065" cy="275.7507" fill="#F1F1F1" rx="108.7065" ry="24.1413" style="stroke:#181818;stroke-width:0.5;"/><text fill="#000000" font-family="sans-serif" font-size="14" lengthAdjust="spacing" textLength="192.2061" x="1773.1034" y="281.0554">Record Setting &amp; Admin Audits</text></g><!--entity Volunteer--><g class="entity" data-entity="Volunteer" data-source-line="4" data-uid="ent0002" id="entity_Volunteer"><ellipse cx="246.9653" cy="52.6094" fill="#F1F1F1" rx="8" ry="8" style="stroke:#181818;stroke-width:0.5;"/><path d="M246.9653,60.6094 L246.9653,87.6094 M233.9653,68.6094 L259.9653,68.6094 M246.9653,87.6094 L233.9653,102.6094 M246.9653,87.6094 L259.9653,102.6094" fill="none" style="stroke:#181818;stroke-width:0.5;"/><text fill="#000000" font-family="sans-serif" font-size="14" lengthAdjust="spacing" textLength="59.9307" x="217" y="118.6426">Volunteer</text></g><!--entity ClubLeader--><g class="entity" data-entity="ClubLeader" data-source-line="5" data-uid="ent0003" id="entity_ClubLeader"><ellipse cx="1597.1929" cy="52.6094" fill="#F1F1F1" rx="8" ry="8" style="stroke:#181818;stroke-width:0.5;"/><path d="M1597.1929,60.6094 L1597.1929,87.6094 M1584.1929,68.6094 L1610.1929,68.6094 M1597.1929,87.6094 L1584.1929,102.6094 M1597.1929,87.6094 L1610.1929,102.6094" fill="none" style="stroke:#181818;stroke-width:0.5;"/><text fill="#000000" font-family="sans-serif" font-size="14" lengthAdjust="spacing" textLength="72.3857" x="1561" y="118.6426">ClubLeader</text></g><!--entity Officer--><g class="entity" data-entity="Officer" data-source-line="6" data-uid="ent0004" id="entity_Officer"><ellipse cx="1146.1138" cy="52.6094" fill="#F1F1F1" rx="8" ry="8" style="stroke:#181818;stroke-width:0.5;"/><path d="M1146.1138,60.6094 L1146.1138,87.6094 M1133.1138,68.6094 L1159.1138,68.6094 M1146.1138,87.6094 L1133.1138,102.6094 M1146.1138,87.6094 L1159.1138,102.6094" fill="none" style="stroke:#181818;stroke-width:0.5;"/><text fill="#000000" font-family="sans-serif" font-size="14" lengthAdjust="spacing" textLength="41.2275" x="1125.5" y="118.6426">Officer</text></g><!--entity Admin--><g class="entity" data-entity="Admin" data-source-line="7" data-uid="ent0005" id="entity_Admin"><ellipse cx="2148.8413" cy="52.6094" fill="#F1F1F1" rx="8" ry="8" style="stroke:#181818;stroke-width:0.5;"/><path d="M2148.8413,60.6094 L2148.8413,87.6094 M2135.8413,68.6094 L2161.8413,68.6094 M2148.8413,87.6094 L2135.8413,102.6094 M2148.8413,87.6094 L2161.8413,102.6094" fill="none" style="stroke:#181818;stroke-width:0.5;"/><text fill="#000000" font-family="sans-serif" font-size="14" lengthAdjust="spacing" textLength="39.6826" x="2129" y="118.6426">Admin</text></g><!--entity SMTP--><g class="entity" data-entity="SMTP" data-source-line="9" data-uid="ent0006" id="entity_SMTP"><ellipse cx="3019.1724" cy="380.6094" fill="#F1F1F1" rx="8" ry="8" style="stroke:#181818;stroke-width:0.5;"/><path d="M3019.1724,388.6094 L3019.1724,415.6094 M3006.1724,396.6094 L3032.1724,396.6094 M3019.1724,415.6094 L3006.1724,430.6094 M3019.1724,415.6094 L3032.1724,430.6094" fill="none" style="stroke:#181818;stroke-width:0.5;"/><text fill="#000000" font-family="sans-serif" font-size="14" lengthAdjust="spacing" textLength="72.3447" x="2983" y="446.6426">MailSystem</text></g><g class="entity" data-entity="GMN34" data-source-line="51" data-uid="ent0035" id="entity_GMN34"><path d="M3183,246.1094 L3183,271.6094 L3148.33,275.6094 L3183,279.6094 L3183,305.1641 A0,0 0 0 0 3183,305.1641 L3599.2559,305.1641 A0,0 0 0 0 3599.2559,305.1641 L3599.2559,256.1094 L3589.2559,246.1094 L3183,246.1094 A0,0 0 0 0 3183,246.1094" fill="#FEFFDD" style="stroke:#181818;stroke-width:0.5;"/><path d="M3589.2559,246.1094 L3589.2559,256.1094 L3599.2559,256.1094 L3589.2559,246.1094" fill="#FEFFDD" style="stroke:#181818;stroke-width:0.5;"/><text fill="#000000" font-family="sans-serif" font-size="13" lengthAdjust="spacing" textLength="395.2559" x="3189" y="264.6045">- Prefer queued/asynchronous sending (Flask-Mailman / task queue)</text><text fill="#000000" font-family="sans-serif" font-size="13" lengthAdjust="spacing" textLength="306.3823" x="3189" y="280.9561">- Fallback to direct SMTP when queue not configured</text><text fill="#000000" font-family="sans-serif" font-size="13" lengthAdjust="spacing" textLength="326.5806" x="3189" y="297.3076">- EmailLog stores status, retries and errors for inspection</text></g><g class="entity" data-entity="GMN37" data-source-line="57" data-uid="ent0038" id="entity_GMN37"><path d="M3634.5,254.1094 L3634.5,296.8125 L4041.1963,296.8125 L4041.1963,264.1094 L4031.1963,254.1094 L3634.5,254.1094" fill="#FEFFDD" style="stroke:#181818;stroke-width:0.5;"/><path d="M4031.1963,254.1094 L4031.1963,264.1094 L4041.1963,264.1094 L4031.1963,254.1094" fill="#FEFFDD" style="stroke:#181818;stroke-width:1;"/><text fill="#000000" font-family="sans-serif" font-size="13" lengthAdjust="spacing" textLength="314.3613" x="3640.5" y="272.6045">- SettingAudit records who changed settings and when</text><text fill="#000000" font-family="sans-serif" font-size="13" lengthAdjust="spacing" textLength="385.6963" x="3640.5" y="288.9561">- Consider separate ImpersonationAudit for admin "view as" events</text></g><!--link Volunteer to UC_SignIn--><g class="link" data-entity-1="Volunteer" data-entity-2="UC_SignIn" data-source-line="26" data-uid="lnk19" id="link_Volunteer_UC_SignIn"><path d="M277.09,119.4994 C309.48,157.5894 356.2525,212.5891 384.4325,245.7191" fill="none" id="Volunteer-to-UC_SignIn" style="stroke:#181818;stroke-width:1;"/><polygon fill="#181818" points="388.32,250.2894,385.5357,240.8423,385.0805,246.4808,379.4419,246.0255,388.32,250.2894" style="stroke:#181818;stroke-width:1;"/></g><!--link Volunteer to UC_StopSign--><g class="link" data-entity-1="Volunteer" data-entity-2="UC_StopSign" data-source-line="27" data-uid="lnk20" id="link_Volunteer_UC_StopSign"><path d="M225.8,122.1994 C204.72,160.0994 175.8976,211.8965 157.8176,244.3865" fill="none" id="Volunteer-to-UC_StopSign" style="stroke:#181818;stroke-width:1;"/><polygon fill="#181818" points="154.9,249.6294,162.7716,243.7101,157.3313,245.2603,155.7811,239.82,154.9,249.6294" style="stroke:#181818;stroke-width:1;"/></g><!--link Officer to UC_CreateEvent--><g class="link" data-entity-1="Officer" data-entity-2="UC_CreateEvent" data-source-line="29" data-uid="lnk21" id="link_Officer_UC_CreateEvent"><path d="M1125.46,90.1794 C1079.51,103.9694 965.24,139.4794 873,178.1094 C820.09,200.2694 766.668,227.4532 727.838,248.0932" fill="none" id="Officer-to-UC_CreateEvent" style="stroke:#181818;stroke-width:1;"/><polygon fill="#181818" points="722.54,250.9094,732.3645,250.2172,726.955,248.5626,728.6096,243.1531,722.54,250.9094" style="stroke:#181818;stroke-width:1;"/></g><!--link Officer to UC_GenerateLinks--><g class="link" data-entity-1="Officer" data-entity-2="UC_GenerateLinks" data-source-line="30" data-uid="lnk22" id="link_Officer_UC_GenerateLinks"><path d="M1125.41,115.9994 C1101.82,152.5394 1066.774,206.8084 1044.304,241.6184" fill="none" id="Officer-to-UC_GenerateLinks" style="stroke:#181818;stroke-width:1;"/><polygon fill="#181818" points="1041.05,246.6594,1049.2916,241.2672,1043.7617,242.4585,1042.5703,236.9286,1041.05,246.6594" style="stroke:#181818;stroke-width:1;"/></g><!--link Officer to UC_ApproveTimelog--><g class="link" data-entity-1="Officer" data-entity-2="UC_ApproveTimelog" data-source-line="31" data-uid="lnk23" id="link_Officer_UC_ApproveTimelog"><path d="M1166.69,107.8494 C1198.15,143.9594 1253.8178,207.8462 1286.0478,244.8262" fill="none" id="Officer-to-UC_ApproveTimelog" style="stroke:#181818;stroke-width:1;"/><polygon fill="#181818" points="1289.99,249.3494,1287.0922,239.9365,1286.7048,245.5801,1281.0613,245.1927,1289.99,249.3494" style="stroke:#181818;stroke-width:1;"/></g><!--link Officer to UC_ViewEmailLogs--><g class="link" data-entity-1="Officer" data-entity-2="UC_ViewEmailLogs" data-source-line="32" data-uid="lnk24" id="link_Officer_UC_ViewEmailLogs"><path d="M1166.64,86.3594 C1225.41,92.7194 1398.71,111.0494 1543,122.1094 C1774.26,139.8294 1832.97,131.5694 2064,152.1094 C2160.31,160.6694 2190.59,141.2994 2280,178.1094 C2321.12,195.0394 2355.8881,225.296 2378.8181,248.126" fill="none" id="Officer-to-UC_ViewEmailLogs" style="stroke:#181818;stroke-width:1;"/><polygon fill="#181818" points="2383.07,252.3594,2379.5144,243.1747,2379.5267,248.8316,2373.8699,248.8439,2383.07,252.3594" style="stroke:#181818;stroke-width:1;"/></g><!--link ClubLeader to UC_ManageUsers--><g class="link" data-entity-1="ClubLeader" data-entity-2="UC_ManageUsers" data-source-line="34" data-uid="lnk25" id="link_ClubLeader_UC_ManageUsers"><path d="M1597,122.1994 C1597,159.2294 1597,208.5394 1597,241.3494" fill="none" id="ClubLeader-to-UC_ManageUsers" style="stroke:#181818;stroke-width:1;"/><polygon fill="#181818" points="1597,247.3494,1601,238.3494,1597,242.3494,1593,238.3494,1597,247.3494" style="stroke:#181818;stroke-width:1;"/></g><!--link Admin to UC_ManageUsers--><g class="link" data-entity-1="Admin" data-entity-2="UC_ManageUsers" data-source-line="36" data-uid="lnk26" id="link_Admin_UC_ManageUsers"><path d="M2128.78,86.2194 C2068.12,93.0694 1883.26,117.8494 1743,178.1094 C1700.85,196.2194 1662.386,222.8814 1634.016,244.7014" fill="none" id="Admin-to-UC_ManageUsers" style="stroke:#181818;stroke-width:1;"/><polygon fill="#181818" points="1629.26,248.3594,1638.8326,246.0431,1633.2233,245.3111,1633.9554,239.7018,1629.26,248.3594" style="stroke:#181818;stroke-width:1;"/></g><!--link Admin to UC_Settings--><g class="link" data-entity-1="Admin" data-entity-2="UC_Settings" data-source-line="37" data-uid="lnk27" id="link_Admin_UC_Settings"><path d="M2169.31,87.1694 C2227.02,96.2994 2396.27,125.9194 2528,178.1094 C2572.25,195.6394 2614.0583,219.4054 2647.6983,240.3754" fill="none" id="Admin-to-UC_Settings" style="stroke:#181818;stroke-width:1;"/><polygon fill="#181818" points="2652.79,243.5494,2647.2684,235.3939,2648.5469,240.9044,2643.0364,242.1829,2652.79,243.5494" style="stroke:#181818;stroke-width:1;"/></g><!--link Admin to UC_ViewEmailLogs--><g class="link" data-entity-1="Admin" data-entity-2="UC_ViewEmailLogs" data-source-line="38" data-uid="lnk28" id="link_Admin_UC_ViewEmailLogs"><path d="M2169.08,86.1594 C2207.31,91.0294 2291.35,106.5394 2343,152.1094 C2373.46,178.9894 2388.78,218.8565 2396.7,246.1865" fill="none" id="Admin-to-UC_ViewEmailLogs" style="stroke:#181818;stroke-width:1;"/><polygon fill="#181818" points="2398.37,251.9494,2399.7069,242.1917,2396.9783,247.147,2392.023,244.4184,2398.37,251.9494" style="stroke:#181818;stroke-width:1;"/></g><!--link Admin to UC_Audit--><g class="link" data-entity-1="Admin" data-entity-2="UC_Audit" data-source-line="39" data-uid="lnk29" id="link_Admin_UC_Audit"><path d="M2128.81,90.0494 C2097.52,99.8394 2036.2,121.3894 1991,152.1094 C1949.05,180.6194 1913.1451,220.2568 1890.9851,247.0368" fill="none" id="Admin-to-UC_Audit" style="stroke:#181818;stroke-width:1;"/><polygon fill="#181818" points="1887.16,251.6594,1895.9794,247.2756,1890.3476,247.8072,1889.816,242.1754,1887.16,251.6594" style="stroke:#181818;stroke-width:1;"/></g><!--link UC_CreateEvent to UC_GenerateLinks--><g class="link" data-entity-1="UC_CreateEvent" data-entity-2="UC_GenerateLinks" data-source-line="42" data-uid="lnk30" id="link_UC_CreateEvent_UC_GenerateLinks"><path d="M798.83,275.6094 C828.4,275.6094 854.24,275.6094 884.38,275.6094" fill="none" id="UC_CreateEvent-to-UC_GenerateLinks" style="stroke:#181818;stroke-width:1;stroke-dasharray:7,7;"/><polygon fill="#181818" points="890.38,275.6094,881.38,271.6094,885.38,275.6094,881.38,279.6094,890.38,275.6094" style="stroke:#181818;stroke-width:1;"/><text fill="#000000" font-family="sans-serif" font-size="13" lengthAdjust="spacing" textLength="55.6563" x="817" y="269.1045">&#171;include&#187;</text></g><!--link UC_GenerateLinks to UC_SendEmails--><g class="link" data-entity-1="UC_GenerateLinks" data-entity-2="UC_SendEmails" data-source-line="43" data-uid="lnk31" id="link_UC_GenerateLinks_UC_SendEmails"><path d="M1054.46,247.2994 C1083.06,223.6194 1127.6,191.5994 1173,178.1094 C1263.53,151.2094 2782.64,150.6494 2873,178.1094 C2918.06,191.7994 2957.3572,220.5714 2985.0372,244.3314" fill="none" id="UC_GenerateLinks-to-UC_SendEmails" style="stroke:#181818;stroke-width:1;stroke-dasharray:7,7;"/><polygon fill="#181818" points="2989.59,248.2394,2985.3662,239.3422,2985.796,244.9827,2980.1555,245.4125,2989.59,248.2394" style="stroke:#181818;stroke-width:1;"/><text fill="#000000" font-family="sans-serif" font-size="13" lengthAdjust="spacing" textLength="55.6563" x="2000.5" y="166.6045">&#171;include&#187;</text></g><!--link UC_PasswordReset to UC_SendEmails--><g class="link" data-entity-1="UC_PasswordReset" data-entity-2="UC_SendEmails" data-source-line="44" data-uid="lnk32" id="link_UC_PasswordReset_UC_SendEmails"><path d="M2165.05,248.6694 C2191.26,224.6194 2233.42,191.0994 2277.5,177.1094 C2301.65,169.4394 2309.17,177.0894 2334.5,177.1094 C2454.17,177.2194 2758.51,143.2794 2873,178.1094 C2918.05,191.8194 2957.3466,220.5822 2985.0366,244.3422" fill="none" id="UC_PasswordReset-to-UC_SendEmails" style="stroke:#181818;stroke-width:1;stroke-dasharray:7,7;"/><polygon fill="#181818" points="2989.59,248.2494,2985.3646,239.353,2985.7955,244.9934,2980.155,245.4242,2989.59,248.2494" style="stroke:#181818;stroke-width:1;"/><text fill="#000000" font-family="sans-serif" font-size="13" lengthAdjust="spacing" textLength="55.6563" x="2278.5" y="166.6045">&#171;include&#187;</text></g><!--link UC_SendEmails to SMTP--><g class="link" data-entity-1="UC_SendEmails" data-entity-2="SMTP" data-source-line="47" data-uid="lnk33" id="link_UC_SendEmails_SMTP"><path d="M3019,303.6294 C3019,323.2794 3019,344.1694 3019,366.0094" fill="none" id="UC_SendEmails-to-SMTP" style="stroke:#181818;stroke-width:1;"/><polygon fill="#181818" points="3019,372.0094,3023,363.0094,3019,367.0094,3015,363.0094,3019,372.0094" style="stroke:#181818;stroke-width:1;"/></g><!--link GMN37 to UC_Audit--><g class="link" data-entity-1="GMN37" data-entity-2="UC_Audit" data-source-line="57" data-uid="lnk39" id="link_GMN37_UC_Audit"><path d="M3808.68,254.0794 C3765.49,223.8494 3681.03,170.2494 3599.5,150.1094 C3513.91,128.9594 2095.04,119.1094 2012.5,150.1094 C1958.43,170.4194 1911.4,221.3494 1886.93,251.7194" fill="none" id="GMN37-UC_Audit" style="stroke:#181818;stroke-width:1;stroke-dasharray:7,7;"/></g><!--SRC=[XLN1Rjim3BthAuWSLWT8sdjH5CZITiZGRaNRT9S1WsBJhXPPyYGvNJ7itqTATbCx1NOnB59yVYGVwQ22HbYiLn_XyUOUvh3s24j9ZmibAoThoEvVVC1wAeJCWtNmQ7Lh0gBhpalTRgvH5g-6hsMfyjVJegYLwMDlfD893gI7-vk7Mo4Sva6QYbXCc47catzZMrD8zpATm1y1q7hCcTLw-MFfK0QytA49Z399PuY6xoPhfADxCWGq1I9evSCCTbAhGWPbpNGoHFk41Xt5NokpzH6ljy0jklbhjX0l4FxdRmyGx1QDdm7-RfHxcK6DGHAy78FV4uVBcf9Eo7pSrm-IXo1_jTXYSIBzYyc1obHAhJSotyOA7M2gognCmgDNeFUTal30bE04RgNtpzOL6hqVHmRRn90OImUujbMbJ4LXIrit6Ydf1rKZcKUXYwPnTeVirBQA09s9Ok_m9_KGEgU7h5F0cFcDDB924fXBvKXdI8PiURU-c86pH7m6XV9oe_6mdY4Gtq5ufwTNLyP5cwKMTGqQmpmgV8x5lxOT5bjIFo3QibBfGBI848P3WBx8T-WnYR2tG39b3gcfFi07uAF1vp74eYrK2ht3d0Ex12WYZWp42zJ2lq8SmS9xcwieO2BNE5NJQ40SAayH3dr37hLHMWM5VYhsAflFp_UoUSVUYKA8hckzuysOZLs3cHaxXr8PUmUb5sA_FFeBRqGYHAh4Evw1es_zq3hyqi0LIyjbNPbSjmLh67_plg12wbHaCLeqnuU9mocSdQc4S7uk3jp7vwCLS71_AAF_t2UwdTGLDP1MC_CKmmZEBstL8_XY0_fJ80TTDzBaj1GfGzjW2fKQSajMHyaQkWjELKy1R3baGQgTmwt3abhqTayzEMjiwqdUfc3PPbTQ-ksSDtmjUH45EgQ8QSIuwfTQi3JUlFKZLNX-eZcDzu1eCATILQt38aRr7GHFKaVwN92XxSQIX1vJGkTu34hQdChuXf2vCjnEpakax3IMVNAf_OpUAIVDeejpw8cGXVo9VabOyF1s2uVGc6aCM_AiiMOzqj-6VnMhcihggQZywGJ7T6HKtMJ7sqNw2I1hoU-f_GC0]--></g></svg>