<svg xmlns="http://www.w3.org/2000/svg" xmlns:xlink="http://www.w3.org/1999/xlink" contentStyleType="text/css" data-diagram-type="SEQUENCE" height="565px" preserveAspectRatio="none" style="width:864px;height:565px;background:#FFFFFF;" version="1.1" viewBox="0 0 864 565" width="864px" zoomAndPan="magnify"><title>Bulk submission (club leader uploads CSV/XLSX)</title><defs/><g><text fill="#000000" font-family="sans-serif" font-size="14" font-weight="bold" lengthAdjust="spacing" textLength="329.8408" x="268.4829" y="29.5332">Bulk submission (club leader uploads CSV/XLSX)</text><rect fill="none" height="187.9453" style="stroke:#000000;stroke-width:1.5;" width="697.5625" x="160.2441" y="242.2734"/><rect fill="none" height="48.7031" style="stroke:#000000;stroke-width:1.5;" width="470.3643" x="377.4424" y="297.9766"/><g><title>Club Leader</title><rect fill="#000000" fill-opacity="0.00000" height="362.3516" width="8" x="42.1377" y="121.2188"/><line style="stroke:#181818;stroke-width:0.5;stroke-dasharray:5,5;" x1="46" x2="46" y1="121.2188" y2="483.5703"/></g><g><title>Web UI</title><rect fill="#000000" fill-opacity="0.00000" height="362.3516" width="8" x="196.582" y="121.2188"/><line style="stroke:#181818;stroke-width:0.5;stroke-dasharray:5,5;" x1="200.2441" x2="200.2441" y1="121.2188" y2="483.5703"/></g><g><title>Club Blueprint .server.</title><rect fill="#000000" fill-opacity="0.00000" height="362.3516" width="8" x="460.4663" y="121.2188"/><line style="stroke:#181818;stroke-width:0.5;stroke-dasharray:5,5;" x1="464.4424" x2="464.4424" y1="121.2188" y2="483.5703"/></g><g><title>DB .BulkSubmission. BulkSubmissionEntry.</title><rect fill="#000000" fill-opacity="0.00000" height="362.3516" width="8" x="690.6484" y="121.2188"/><line style="stroke:#181818;stroke-width:0.5;stroke-dasharray:5,5;" x1="694.4902" x2="694.4902" y1="121.2188" y2="483.5703"/></g><g class="participant participant-head" data-participant="Leader"><text fill="#000000" font-family="sans-serif" font-size="14" lengthAdjust="spacing" textLength="76.2754" x="5" y="118.1426">Club Leader</text><ellipse cx="46.1377" cy="52.1094" fill="#E2E2F0" rx="8" ry="8" style="stroke:#181818;stroke-width:0.5;"/><path d="M46.1377,60.1094 L46.1377,87.1094 M33.1377,68.1094 L59.1377,68.1094 M46.1377,87.1094 L33.1377,102.1094 M46.1377,87.1094 L59.1377,102.1094" fill="none" style="stroke:#181818;stroke-width:0.5;"/></g><g class="participant participant-tail" data-participant="Leader"><text fill="#000000" font-family="sans-serif" font-size="14" lengthAdjust="spacing" textLength="76.2754" x="5" y="497.1035">Club Leader</text><ellipse cx="46.1377" cy="508.6797" fill="#E2E2F0" rx="8" ry="8" style="stroke:#181818;stroke-width:0.5;"/><path d="M46.1377,516.6797 L46.1377,543.6797 M33.1377,524.6797 L59.1377,524.6797 M46.1377,543.6797 L33.1377,558.6797 M46.1377,543.6797 L59.1377,558.6797" fill="none" style="stroke:#181818;stroke-width:0.5;"/></g><g class="participant participant-head" data-participant="UI"><rect fill="#E2E2F0" height="31.6094" rx="2.5" ry="2.5" style="stroke:#181818;stroke-width:0.5;" width="60.6758" x="170.2441" y="88.6094"/><text fill="#000000" font-family="sans-serif" font-size="14" lengthAdjust="spacing" textLength="46.6758" x="177.2441" y="110.1426">Web UI</text></g><g class="participant participant-tail" data-participant="UI"><rect fill="#E2E2F0" height="31.6094" rx="2.5" ry="2.5" style="stroke:#181818;stroke-width:0.5;" width="60.6758" x="170.2441" y="482.5703"/><text fill="#000000" font-family="sans-serif" font-size="14" lengthAdjust="spacing" textLength="46.6758" x="177.2441" y="504.1035">Web UI</text></g><g class="participant participant-head" data-participant="Club"><rect fill="#E2E2F0" height="31.6094" rx="2.5" ry="2.5" style="stroke:#181818;stroke-width:0.5;" width="154.0479" x="387.4424" y="88.6094"/><text fill="#000000" font-family="sans-serif" font-size="14" lengthAdjust="spacing" textLength="140.0479" x="394.4424" y="110.1426">Club Blueprint (server)</text></g><g class="participant participant-tail" data-participant="Club"><rect fill="#E2E2F0" height="31.6094" rx="2.5" ry="2.5" style="stroke:#181818;stroke-width:0.5;" width="154.0479" x="387.4424" y="482.5703"/><text fill="#000000" font-family="sans-serif" font-size="14" lengthAdjust="spacing" textLength="140.0479" x="394.4424" y="504.1035">Club Blueprint (server)</text></g><g class="participant participant-head" data-participant="DB"><rect fill="#E2E2F0" height="31.6094" rx="2.5" ry="2.5" style="stroke:#181818;stroke-width:0.5;" width="286.3164" x="551.4902" y="88.6094"/><text fill="#000000" font-family="sans-serif" font-size="14" lengthAdjust="spacing" textLength="272.3164" x="558.4902" y="110.1426">DB (BulkSubmission, BulkSubmissionEntry)</text></g><g class="participant participant-tail" data-participant="DB"><rect fill="#E2E2F0" height="31.6094" rx="2.5" ry="2.5" style="stroke:#181818;stroke-width:0.5;" width="286.3164" x="551.4902" y="482.5703"/><text fill="#000000" font-family="sans-serif" font-size="14" lengthAdjust="spacing" textLength="272.3164" x="558.4902" y="504.1035">DB (BulkSubmission, BulkSubmissionEntry)</text></g><g class="message" data-participant-1="Leader" data-participant-2="UI"><polygon fill="#181818" points="188.582,149.5703,198.582,153.5703,188.582,157.5703,192.582,153.5703" style="stroke:#181818;stroke-width:1;"/><line style="stroke:#181818;stroke-width:1;" x1="46.1377" x2="194.582" y1="153.5703" y2="153.5703"/><text fill="#000000" font-family="sans-serif" font-size="13" lengthAdjust="spacing" textLength="130.4443" x="53.1377" y="148.7139">Upload file + metadata</text></g><g class="message" data-participant-1="UI" data-participant-2="Club"><polygon fill="#181818" points="452.4663,179.9219,462.4663,183.9219,452.4663,187.9219,456.4663,183.9219" style="stroke:#181818;stroke-width:1;"/><line style="stroke:#181818;stroke-width:1;" x1="200.582" x2="458.4663" y1="183.9219" y2="183.9219"/><text fill="#000000" font-family="sans-serif" font-size="13" lengthAdjust="spacing" textLength="177.0044" x="207.582" y="179.0654">POST /club/submit_hours (file)</text></g><g class="message" data-participant-1="Club" data-participant-2="Club"><line style="stroke:#181818;stroke-width:1;" x1="464.4663" x2="506.4663" y1="214.2734" y2="214.2734"/><line style="stroke:#181818;stroke-width:1;" x1="506.4663" x2="506.4663" y1="214.2734" y2="227.2734"/><line style="stroke:#181818;stroke-width:1;" x1="465.4663" x2="506.4663" y1="227.2734" y2="227.2734"/><polygon fill="#181818" points="475.4663,223.2734,465.4663,227.2734,475.4663,231.2734,471.4663,227.2734" style="stroke:#181818;stroke-width:1;"/><text fill="#000000" font-family="sans-serif" font-size="13" lengthAdjust="spacing" textLength="107.6689" x="471.4663" y="209.417">parse file (pandas)</text></g><path d="M160.2441,242.2734 L220.415,242.2734 L220.415,250.625 L210.415,260.625 L160.2441,260.625 L160.2441,242.2734" fill="#EEEEEE" style="stroke:#000000;stroke-width:1.5;"/><rect fill="none" height="187.9453" style="stroke:#000000;stroke-width:1.5;" width="697.5625" x="160.2441" y="242.2734"/><text fill="#000000" font-family="sans-serif" font-size="13" font-weight="bold" lengthAdjust="spacing" textLength="15.1709" x="175.2441" y="256.7686">alt</text><text fill="#000000" font-family="sans-serif" font-size="11" font-weight="bold" lengthAdjust="spacing" textLength="78.2246" x="235.415" y="255.6924">[validation OK]</text><g class="message" data-participant-1="Club" data-participant-2="DB"><polygon fill="#181818" points="682.6484,278.9766,692.6484,282.9766,682.6484,286.9766,686.6484,282.9766" style="stroke:#181818;stroke-width:1;"/><line style="stroke:#181818;stroke-width:1;" x1="464.4663" x2="688.6484" y1="282.9766" y2="282.9766"/><text fill="#000000" font-family="sans-serif" font-size="13" lengthAdjust="spacing" textLength="132.228" x="471.4663" y="278.1201">create BulkSubmission</text></g><path d="M377.4424,297.9766 L449.877,297.9766 L449.877,306.3281 L439.877,316.3281 L377.4424,316.3281 L377.4424,297.9766" fill="#EEEEEE" style="stroke:#000000;stroke-width:1.5;"/><rect fill="none" height="48.7031" style="stroke:#000000;stroke-width:1.5;" width="470.3643" x="377.4424" y="297.9766"/><text fill="#000000" font-family="sans-serif" font-size="13" font-weight="bold" lengthAdjust="spacing" textLength="27.4346" x="392.4424" y="312.4717">loop</text><text fill="#000000" font-family="sans-serif" font-size="11" font-weight="bold" lengthAdjust="spacing" textLength="72.73" x="464.877" y="311.3955">[for each row]</text><g class="message" data-participant-1="Club" data-participant-2="DB"><polygon fill="#181818" points="682.6484,334.6797,692.6484,338.6797,682.6484,342.6797,686.6484,338.6797" style="stroke:#181818;stroke-width:1;"/><line style="stroke:#181818;stroke-width:1;" x1="464.4663" x2="688.6484" y1="338.6797" y2="338.6797"/><text fill="#000000" font-family="sans-serif" font-size="13" lengthAdjust="spacing" textLength="162.5698" x="471.4663" y="333.8232">create BulkSubmissionEntry</text></g><g class="message" data-participant-1="Club" data-participant-2="UI"><polygon fill="#181818" points="211.582,372.0313,201.582,376.0313,211.582,380.0313,207.582,376.0313" style="stroke:#181818;stroke-width:1;"/><line style="stroke:#181818;stroke-width:1;" x1="205.582" x2="463.4663" y1="376.0313" y2="376.0313"/><text fill="#000000" font-family="sans-serif" font-size="13" lengthAdjust="spacing" textLength="239.8843" x="217.582" y="371.1748">201 Created / redirect to my_submissions</text></g><line style="stroke:#000000;stroke-width:1;stroke-dasharray:2,2;" x1="160.2441" x2="857.8066" y1="385.0313" y2="385.0313"/><text fill="#000000" font-family="sans-serif" font-size="11" font-weight="bold" lengthAdjust="spacing" textLength="83.7354" x="165.2441" y="396.4502">[validation fails]</text><g class="message" data-participant-1="Club" data-participant-2="UI"><polygon fill="#181818" points="211.582,418.2188,201.582,422.2188,211.582,426.2188,207.582,422.2188" style="stroke:#181818;stroke-width:1;"/><line style="stroke:#181818;stroke-width:1;" x1="205.582" x2="463.4663" y1="422.2188" y2="422.2188"/><text fill="#000000" font-family="sans-serif" font-size="13" lengthAdjust="spacing" textLength="146.6816" x="217.582" y="417.3623">400 Bad Request (errors)</text></g><path d="M546,442.2188 L546,468.2188 L842,468.2188 L842,452.2188 L832,442.2188 L546,442.2188" fill="#FEFFDD" style="stroke:#181818;stroke-width:0.5;"/><path d="M832,442.2188 L832,452.2188 L842,452.2188 L832,442.2188" fill="#FEFFDD" style="stroke:#181818;stroke-width:0.5;"/><text fill="#000000" font-family="sans-serif" font-size="13" lengthAdjust="spacing" textLength="275.2979" x="552" y="460.7139">Entries stored individually for per-entry approval</text><!--SRC=[ZPAzJWCn48HxFyKerKM04X1L2efBA2AGG8G07TgSDyB2EHzhNr3UdhN3NwZephUpdczsdLpoZBhthuZzQkDYTA55rVX-1SzaMT1tFf2Dc2uUHa_NYwUXCTIa81XCi-gwg0QW-FbfEfBa6jTHcp1uv1MMyr9UpWzBfRtsFNVYz5n5bYtBi6XpxL0zgr5bpiKtvZ4EpvTjajs-VLORiwV1oOKQJx0iAR1s6lS86qvaAP5PphCWkqrmUxEunoX77vLPfEUNq4j4bPk6fk1-YvKjylwwIW4jnQ4Xdx0bx_JcFCMRAmDyTStg2HfXIlo7MZK-X0vhdIXJym89x_hl7vqbhqgvjR-CSjYpyIccfSLY167hX9k45B3PFV_iEHhs6k8NyfgSZtykEn-FKUlexlYjvwXxOf4W6ZVxcZOeLz2z5SwCv3WYwljGRzTQjtMs9-zt9M37Si8P6zHr4jJPV000]--></g></svg>