<svg xmlns="http://www.w3.org/2000/svg" xmlns:xlink="http://www.w3.org/1999/xlink" contentStyleType="text/css" data-diagram-type="CLASS" height="702px" preserveAspectRatio="none" style="width:609px;height:702px;background:#FFFFFF;" version="1.1" viewBox="0 0 609 702" width="609px" zoomAndPan="magnify"><title>AUIB VMS - Key Domain Classes</title><defs/><g><g class="title" data-source-line="1"><text fill="#000000" font-family="sans-serif" font-size="14" font-weight="bold" lengthAdjust="spacing" textLength="218.6201" x="188.1899" y="24.5332">AUIB VMS - Key Domain Classes</text></g><!--cluster Core Models--><g class="cluster" data-entity="Core Models" data-source-line="3" data-uid="ent0002" id="cluster_Core Models"><path d="M8.5,44.6094 L93.5137,44.6094 A3.75,3.75 0 0 1 96.0137,47.1094 L103.0137,68.2188 L599.5,68.2188 A2.5,2.5 0 0 1 602,70.7188 L602,693.1094 A2.5,2.5 0 0 1 599.5,695.6094 L8.5,695.6094 A2.5,2.5 0 0 1 6,693.1094 L6,47.1094 A2.5,2.5 0 0 1 8.5,44.6094" fill="none" style="stroke:#000000;stroke-width:1.5;"/><line style="stroke:#000000;stroke-width:1.5;" x1="6" x2="103.0137" y1="68.2188" y2="68.2188"/><text fill="#000000" font-family="sans-serif" font-size="14" font-weight="bold" lengthAdjust="spacing" textLength="84.0137" x="10" y="61.1426">Core Models</text></g><!--class User--><g class="entity" data-entity="User" data-source-line="4" data-uid="ent0003" id="entity_User"><rect fill="#F1F1F1" height="136.0469" rx="2.5" ry="2.5" style="stroke:#181818;stroke-width:0.5;" width="110.8271" x="474.5" y="80.6094"/><ellipse cx="511.6708" cy="96.6094" fill="#ADD1B2" rx="11" ry="11" style="stroke:#181818;stroke-width:1;"/><path d="M514.4365,92.4844 Q514.5927,92.2656 514.7802,92.1563 Q514.9677,92.0469 515.1865,92.0469 Q515.5615,92.0469 515.7958,92.3047 Q516.0302,92.5625 516.0302,93.1719 L516.0302,94.625 Q516.0302,95.2344 515.7958,95.5 Q515.5615,95.7656 515.1865,95.7656 Q514.8427,95.7656 514.6396,95.5625 Q514.4365,95.375 514.3271,94.8594 Q514.2802,94.5 514.0927,94.3125 Q513.7646,93.9375 513.1552,93.7188 Q512.5458,93.5 511.9208,93.5 Q511.1552,93.5 510.5224,93.8281 Q509.8896,94.1563 509.3974,94.9063 Q508.9052,95.6563 508.9052,96.6875 L508.9052,97.7813 Q508.9052,99.0156 509.7958,99.8359 Q510.6865,100.6563 512.2802,100.6563 Q513.2177,100.6563 513.874,100.4063 Q514.2646,100.25 514.6865,99.8125 Q514.9521,99.5469 515.1005,99.4688 Q515.249,99.3906 515.4521,99.3906 Q515.7802,99.3906 516.038,99.6484 Q516.2958,99.9063 516.2958,100.25 Q516.2958,100.5938 515.9521,101 Q515.4521,101.5781 514.6552,101.9063 Q513.5771,102.3594 512.2802,102.3594 Q510.7646,102.3594 509.5615,101.7344 Q508.5771,101.2344 507.8896,100.1641 Q507.2021,99.0938 507.2021,97.8125 L507.2021,96.6563 Q507.2021,95.3281 507.8193,94.1797 Q508.4365,93.0313 509.5302,92.4141 Q510.624,91.7969 511.8583,91.7969 Q512.5927,91.7969 513.2412,91.9609 Q513.8896,92.125 514.4365,92.4844 Z " fill="#000000"/><text fill="#000000" font-family="sans-serif" font-size="14" lengthAdjust="spacing" textLength="29.5586" x="530.5977" y="102.3379">User</text><line style="stroke:#181818;stroke-width:0.5;" x1="475.5" x2="584.3271" y1="112.6094" y2="112.6094"/><ellipse cx="485.5" cy="126.9141" fill="none" rx="3" ry="3" style="stroke:#038048;stroke-width:1;"/><text fill="#000000" font-family="sans-serif" font-size="14" lengthAdjust="spacing" textLength="51.3584" x="494.5" y="131.1426">String id</text><ellipse cx="485.5" cy="144.5234" fill="none" rx="3" ry="3" style="stroke:#038048;stroke-width:1;"/><text fill="#000000" font-family="sans-serif" font-size="14" lengthAdjust="spacing" textLength="73.917" x="494.5" y="148.752">String email</text><ellipse cx="485.5" cy="162.1328" fill="none" rx="3" ry="3" style="stroke:#038048;stroke-width:1;"/><text fill="#000000" font-family="sans-serif" font-size="14" lengthAdjust="spacing" textLength="75.4824" x="494.5" y="166.3613">String name</text><ellipse cx="485.5" cy="179.7422" fill="none" rx="3" ry="3" style="stroke:#038048;stroke-width:1;"/><text fill="#000000" font-family="sans-serif" font-size="14" lengthAdjust="spacing" textLength="63.8066" x="494.5" y="183.9707">String role</text><ellipse cx="485.5" cy="197.3516" fill="none" rx="3" ry="3" style="stroke:#038048;stroke-width:1;"/><text fill="#000000" font-family="sans-serif" font-size="14" lengthAdjust="spacing" textLength="84.8271" x="494.5" y="201.5801">String club_id</text><line style="stroke:#181818;stroke-width:0.5;" x1="475.5" x2="584.3271" y1="208.6563" y2="208.6563"/></g><!--class Event--><g class="entity" data-entity="Event" data-source-line="12" data-uid="ent0004" id="entity_Event"><rect fill="#F1F1F1" height="136.0469" rx="2.5" ry="2.5" style="stroke:#181818;stroke-width:0.5;" width="136.4756" x="303" y="80.6094"/><ellipse cx="349.0879" cy="96.6094" fill="#ADD1B2" rx="11" ry="11" style="stroke:#181818;stroke-width:1;"/><path d="M351.8535,92.4844 Q352.0098,92.2656 352.1973,92.1563 Q352.3848,92.0469 352.6035,92.0469 Q352.9785,92.0469 353.2129,92.3047 Q353.4473,92.5625 353.4473,93.1719 L353.4473,94.625 Q353.4473,95.2344 353.2129,95.5 Q352.9785,95.7656 352.6035,95.7656 Q352.2598,95.7656 352.0566,95.5625 Q351.8535,95.375 351.7441,94.8594 Q351.6973,94.5 351.5098,94.3125 Q351.1816,93.9375 350.5723,93.7188 Q349.9629,93.5 349.3379,93.5 Q348.5723,93.5 347.9395,93.8281 Q347.3066,94.1563 346.8145,94.9063 Q346.3223,95.6563 346.3223,96.6875 L346.3223,97.7813 Q346.3223,99.0156 347.2129,99.8359 Q348.1035,100.6563 349.6973,100.6563 Q350.6348,100.6563 351.291,100.4063 Q351.6816,100.25 352.1035,99.8125 Q352.3691,99.5469 352.5176,99.4688 Q352.666,99.3906 352.8691,99.3906 Q353.1973,99.3906 353.4551,99.6484 Q353.7129,99.9063 353.7129,100.25 Q353.7129,100.5938 353.3691,101 Q352.8691,101.5781 352.0723,101.9063 Q350.9941,102.3594 349.6973,102.3594 Q348.1816,102.3594 346.9785,101.7344 Q345.9941,101.2344 345.3066,100.1641 Q344.6191,99.0938 344.6191,97.8125 L344.6191,96.6563 Q344.6191,95.3281 345.2363,94.1797 Q345.8535,93.0313 346.9473,92.4141 Q348.041,91.7969 349.2754,91.7969 Q350.0098,91.7969 350.6582,91.9609 Q351.3066,92.125 351.8535,92.4844 Z " fill="#000000"/><text fill="#000000" font-family="sans-serif" font-size="14" lengthAdjust="spacing" textLength="35.7998" x="369.5879" y="102.3379">Event</text><line style="stroke:#181818;stroke-width:0.5;" x1="304" x2="438.4756" y1="112.6094" y2="112.6094"/><ellipse cx="314" cy="126.9141" fill="none" rx="3" ry="3" style="stroke:#038048;stroke-width:1;"/><text fill="#000000" font-family="sans-serif" font-size="14" lengthAdjust="spacing" textLength="51.3584" x="323" y="131.1426">String id</text><ellipse cx="314" cy="144.5234" fill="none" rx="3" ry="3" style="stroke:#038048;stroke-width:1;"/><text fill="#000000" font-family="sans-serif" font-size="14" lengthAdjust="spacing" textLength="75.4824" x="323" y="148.752">String name</text><ellipse cx="314" cy="162.1328" fill="none" rx="3" ry="3" style="stroke:#038048;stroke-width:1;"/><text fill="#000000" font-family="sans-serif" font-size="14" lengthAdjust="spacing" textLength="110.4756" x="323" y="166.3613">DateTime start_ts</text><ellipse cx="314" cy="179.7422" fill="none" rx="3" ry="3" style="stroke:#038048;stroke-width:1;"/><text fill="#000000" font-family="sans-serif" font-size="14" lengthAdjust="spacing" textLength="106.6064" x="323" y="183.9707">DateTime end_ts</text><ellipse cx="314" cy="197.3516" fill="none" rx="3" ry="3" style="stroke:#038048;stroke-width:1;"/><text fill="#000000" font-family="sans-serif" font-size="14" lengthAdjust="spacing" textLength="88.7168" x="323" y="201.5801">String location</text><line style="stroke:#181818;stroke-width:0.5;" x1="304" x2="438.4756" y1="208.6563" y2="208.6563"/></g><!--class TimeLog--><g class="entity" data-entity="TimeLog" data-source-line="20" data-uid="ent0005" id="entity_TimeLog"><rect fill="#F1F1F1" height="136.0469" rx="2.5" ry="2.5" style="stroke:#181818;stroke-width:0.5;" width="166.8613" x="222.5" y="294.6094"/><ellipse cx="274.4463" cy="310.6094" fill="#ADD1B2" rx="11" ry="11" style="stroke:#181818;stroke-width:1;"/><path d="M277.2119,306.4844 Q277.3682,306.2656 277.5557,306.1563 Q277.7432,306.0469 277.9619,306.0469 Q278.3369,306.0469 278.5713,306.3047 Q278.8057,306.5625 278.8057,307.1719 L278.8057,308.625 Q278.8057,309.2344 278.5713,309.5 Q278.3369,309.7656 277.9619,309.7656 Q277.6182,309.7656 277.415,309.5625 Q277.2119,309.375 277.1025,308.8594 Q277.0557,308.5 276.8682,308.3125 Q276.54,307.9375 275.9307,307.7188 Q275.3213,307.5 274.6963,307.5 Q273.9307,307.5 273.2979,307.8281 Q272.665,308.1563 272.1729,308.9063 Q271.6807,309.6563 271.6807,310.6875 L271.6807,311.7813 Q271.6807,313.0156 272.5713,313.8359 Q273.4619,314.6563 275.0557,314.6563 Q275.9932,314.6563 276.6494,314.4063 Q277.04,314.25 277.4619,313.8125 Q277.7275,313.5469 277.876,313.4688 Q278.0244,313.3906 278.2275,313.3906 Q278.5557,313.3906 278.8135,313.6484 Q279.0713,313.9063 279.0713,314.25 Q279.0713,314.5938 278.7275,315 Q278.2275,315.5781 277.4307,315.9063 Q276.3525,316.3594 275.0557,316.3594 Q273.54,316.3594 272.3369,315.7344 Q271.3525,315.2344 270.665,314.1641 Q269.9775,313.0938 269.9775,311.8125 L269.9775,310.6563 Q269.9775,309.3281 270.5947,308.1797 Q271.2119,307.0313 272.3057,306.4141 Q273.3994,305.7969 274.6338,305.7969 Q275.3682,305.7969 276.0166,305.9609 Q276.665,306.125 277.2119,306.4844 Z " fill="#000000"/><text fill="#000000" font-family="sans-serif" font-size="14" lengthAdjust="spacing" textLength="54.4688" x="294.9463" y="316.3379">TimeLog</text><line style="stroke:#181818;stroke-width:0.5;" x1="223.5" x2="388.3613" y1="326.6094" y2="326.6094"/><ellipse cx="233.5" cy="340.9141" fill="none" rx="3" ry="3" style="stroke:#038048;stroke-width:1;"/><text fill="#000000" font-family="sans-serif" font-size="14" lengthAdjust="spacing" textLength="51.3584" x="242.5" y="345.1426">String id</text><ellipse cx="233.5" cy="358.5234" fill="none" rx="3" ry="3" style="stroke:#038048;stroke-width:1;"/><text fill="#000000" font-family="sans-serif" font-size="14" lengthAdjust="spacing" textLength="127.627" x="242.5" y="362.752">String student_email</text><ellipse cx="233.5" cy="376.1328" fill="none" rx="3" ry="3" style="stroke:#038048;stroke-width:1;"/><text fill="#000000" font-family="sans-serif" font-size="14" lengthAdjust="spacing" textLength="93.3926" x="242.5" y="380.3613">String event_id</text><ellipse cx="233.5" cy="393.7422" fill="none" rx="3" ry="3" style="stroke:#038048;stroke-width:1;"/><text fill="#000000" font-family="sans-serif" font-size="14" lengthAdjust="spacing" textLength="140.8613" x="242.5" y="397.9707">Float calculated_hours</text><ellipse cx="233.5" cy="411.3516" fill="none" rx="3" ry="3" style="stroke:#038048;stroke-width:1;"/><text fill="#000000" font-family="sans-serif" font-size="14" lengthAdjust="spacing" textLength="77.8135" x="242.5" y="415.5801">String status</text><line style="stroke:#181818;stroke-width:0.5;" x1="223.5" x2="388.3613" y1="422.6563" y2="422.6563"/></g><!--class BulkSubmission--><g class="entity" data-entity="BulkSubmission" data-source-line="28" data-uid="ent0006" id="entity_BulkSubmission"><rect fill="#F1F1F1" height="136.0469" rx="2.5" ry="2.5" style="stroke:#181818;stroke-width:0.5;" width="157.5303" x="426" y="294.6094"/><ellipse cx="452.6688" cy="310.6094" fill="#ADD1B2" rx="11" ry="11" style="stroke:#181818;stroke-width:1;"/><path d="M455.4344,306.4844 Q455.5907,306.2656 455.7782,306.1563 Q455.9657,306.0469 456.1844,306.0469 Q456.5594,306.0469 456.7938,306.3047 Q457.0282,306.5625 457.0282,307.1719 L457.0282,308.625 Q457.0282,309.2344 456.7938,309.5 Q456.5594,309.7656 456.1844,309.7656 Q455.8407,309.7656 455.6375,309.5625 Q455.4344,309.375 455.325,308.8594 Q455.2782,308.5 455.0907,308.3125 Q454.7625,307.9375 454.1532,307.7188 Q453.5438,307.5 452.9188,307.5 Q452.1532,307.5 451.5204,307.8281 Q450.8875,308.1563 450.3954,308.9063 Q449.9032,309.6563 449.9032,310.6875 L449.9032,311.7813 Q449.9032,313.0156 450.7938,313.8359 Q451.6844,314.6563 453.2782,314.6563 Q454.2157,314.6563 454.8719,314.4063 Q455.2625,314.25 455.6844,313.8125 Q455.95,313.5469 456.0985,313.4688 Q456.2469,313.3906 456.45,313.3906 Q456.7782,313.3906 457.036,313.6484 Q457.2938,313.9063 457.2938,314.25 Q457.2938,314.5938 456.95,315 Q456.45,315.5781 455.6532,315.9063 Q454.575,316.3594 453.2782,316.3594 Q451.7625,316.3594 450.5594,315.7344 Q449.575,315.2344 448.8875,314.1641 Q448.2,313.0938 448.2,311.8125 L448.2,310.6563 Q448.2,309.3281 448.8172,308.1797 Q449.4344,307.0313 450.5282,306.4141 Q451.6219,305.7969 452.8563,305.7969 Q453.5907,305.7969 454.2391,305.9609 Q454.8875,306.125 455.4344,306.4844 Z " fill="#000000"/><text fill="#000000" font-family="sans-serif" font-size="14" lengthAdjust="spacing" textLength="99.5996" x="469.2619" y="316.3379">BulkSubmission</text><line style="stroke:#181818;stroke-width:0.5;" x1="427" x2="582.5303" y1="326.6094" y2="326.6094"/><ellipse cx="437" cy="340.9141" fill="none" rx="3" ry="3" style="stroke:#038048;stroke-width:1;"/><text fill="#000000" font-family="sans-serif" font-size="14" lengthAdjust="spacing" textLength="51.3584" x="446" y="345.1426">String id</text><ellipse cx="437" cy="358.5234" fill="none" rx="3" ry="3" style="stroke:#038048;stroke-width:1;"/><text fill="#000000" font-family="sans-serif" font-size="14" lengthAdjust="spacing" textLength="131.5303" x="446" y="362.752">String club_leader_id</text><ellipse cx="437" cy="376.1328" fill="none" rx="3" ry="3" style="stroke:#038048;stroke-width:1;"/><text fill="#000000" font-family="sans-serif" font-size="14" lengthAdjust="spacing" textLength="125.2891" x="446" y="380.3613">String project_name</text><ellipse cx="437" cy="393.7422" fill="none" rx="3" ry="3" style="stroke:#038048;stroke-width:1;"/><text fill="#000000" font-family="sans-serif" font-size="14" lengthAdjust="spacing" textLength="77.8135" x="446" y="397.9707">String status</text><ellipse cx="437" cy="411.3516" fill="none" rx="3" ry="3" style="stroke:#038048;stroke-width:1;"/><text fill="#000000" font-family="sans-serif" font-size="14" lengthAdjust="spacing" textLength="101.1719" x="446" y="415.5801">Text hours_data</text><line style="stroke:#181818;stroke-width:0.5;" x1="427" x2="582.5303" y1="422.6563" y2="422.6563"/></g><!--class BulkSubmissionEntry--><g class="entity" data-entity="BulkSubmissionEntry" data-source-line="36" data-uid="ent0007" id="entity_BulkSubmissionEntry"><rect fill="#F1F1F1" height="171.2656" rx="2.5" ry="2.5" style="stroke:#181818;stroke-width:0.5;" width="188.6406" x="396.5" y="508.6094"/><ellipse cx="422.4644" cy="524.6094" fill="#ADD1B2" rx="11" ry="11" style="stroke:#181818;stroke-width:1;"/><path d="M425.23,520.4844 Q425.3862,520.2656 425.5737,520.1563 Q425.7612,520.0469 425.98,520.0469 Q426.355,520.0469 426.5894,520.3047 Q426.8237,520.5625 426.8237,521.1719 L426.8237,522.625 Q426.8237,523.2344 426.5894,523.5 Q426.355,523.7656 425.98,523.7656 Q425.6362,523.7656 425.4331,523.5625 Q425.23,523.375 425.1206,522.8594 Q425.0737,522.5 424.8862,522.3125 Q424.5581,521.9375 423.9487,521.7188 Q423.3394,521.5 422.7144,521.5 Q421.9487,521.5 421.3159,521.8281 Q420.6831,522.1563 420.1909,522.9063 Q419.6987,523.6563 419.6987,524.6875 L419.6987,525.7813 Q419.6987,527.0156 420.5894,527.8359 Q421.48,528.6563 423.0737,528.6563 Q424.0112,528.6563 424.6675,528.4063 Q425.0581,528.25 425.48,527.8125 Q425.7456,527.5469 425.894,527.4688 Q426.0425,527.3906 426.2456,527.3906 Q426.5737,527.3906 426.8315,527.6484 Q427.0894,527.9063 427.0894,528.25 Q427.0894,528.5938 426.7456,529 Q426.2456,529.5781 425.4487,529.9063 Q424.3706,530.3594 423.0737,530.3594 Q421.5581,530.3594 420.355,529.7344 Q419.3706,529.2344 418.6831,528.1641 Q417.9956,527.0938 417.9956,525.8125 L417.9956,524.6563 Q417.9956,523.3281 418.6128,522.1797 Q419.23,521.0313 420.3237,520.4141 Q421.4175,519.7969 422.6519,519.7969 Q423.3862,519.7969 424.0347,519.9609 Q424.6831,520.125 425.23,520.4844 Z " fill="#000000"/><text fill="#000000" font-family="sans-serif" font-size="14" lengthAdjust="spacing" textLength="132.2754" x="438.9009" y="530.3379">BulkSubmissionEntry</text><line style="stroke:#181818;stroke-width:0.5;" x1="397.5" x2="584.1406" y1="540.6094" y2="540.6094"/><ellipse cx="407.5" cy="554.9141" fill="none" rx="3" ry="3" style="stroke:#038048;stroke-width:1;"/><text fill="#000000" font-family="sans-serif" font-size="14" lengthAdjust="spacing" textLength="51.3584" x="416.5" y="559.1426">String id</text><ellipse cx="407.5" cy="572.5234" fill="none" rx="3" ry="3" style="stroke:#038048;stroke-width:1;"/><text fill="#000000" font-family="sans-serif" font-size="14" lengthAdjust="spacing" textLength="162.6406" x="416.5" y="576.752">String bulk_submission_id</text><ellipse cx="407.5" cy="590.1328" fill="none" rx="3" ry="3" style="stroke:#038048;stroke-width:1;"/><text fill="#000000" font-family="sans-serif" font-size="14" lengthAdjust="spacing" textLength="75.4824" x="416.5" y="594.3613">String name</text><ellipse cx="407.5" cy="607.7422" fill="none" rx="3" ry="3" style="stroke:#038048;stroke-width:1;"/><text fill="#000000" font-family="sans-serif" font-size="14" lengthAdjust="spacing" textLength="73.917" x="416.5" y="611.9707">String email</text><ellipse cx="407.5" cy="625.3516" fill="none" rx="3" ry="3" style="stroke:#038048;stroke-width:1;"/><text fill="#000000" font-family="sans-serif" font-size="14" lengthAdjust="spacing" textLength="70.0342" x="416.5" y="629.5801">Float hours</text><ellipse cx="407.5" cy="642.9609" fill="none" rx="3" ry="3" style="stroke:#038048;stroke-width:1;"/><text fill="#000000" font-family="sans-serif" font-size="14" lengthAdjust="spacing" textLength="63.8066" x="416.5" y="647.1895">String role</text><ellipse cx="407.5" cy="660.5703" fill="none" rx="3" ry="3" style="stroke:#038048;stroke-width:1;"/><text fill="#000000" font-family="sans-serif" font-size="14" lengthAdjust="spacing" textLength="77.8135" x="416.5" y="664.7988">String status</text><line style="stroke:#181818;stroke-width:0.5;" x1="397.5" x2="584.1406" y1="671.875" y2="671.875"/></g><!--class EmailLog--><g class="entity" data-entity="EmailLog" data-source-line="46" data-uid="ent0008" id="entity_EmailLog"><rect fill="#F1F1F1" height="100.8281" rx="2.5" ry="2.5" style="stroke:#181818;stroke-width:0.5;" width="119.3789" x="148.5" y="98.1094"/><ellipse cx="176.5562" cy="114.1094" fill="#ADD1B2" rx="11" ry="11" style="stroke:#181818;stroke-width:1;"/><path d="M179.3218,109.9844 Q179.478,109.7656 179.6655,109.6563 Q179.853,109.5469 180.0718,109.5469 Q180.4468,109.5469 180.6812,109.8047 Q180.9155,110.0625 180.9155,110.6719 L180.9155,112.125 Q180.9155,112.7344 180.6812,113 Q180.4468,113.2656 180.0718,113.2656 Q179.728,113.2656 179.5249,113.0625 Q179.3218,112.875 179.2124,112.3594 Q179.1655,112 178.978,111.8125 Q178.6499,111.4375 178.0405,111.2188 Q177.4312,111 176.8062,111 Q176.0405,111 175.4077,111.3281 Q174.7749,111.6563 174.2827,112.4063 Q173.7905,113.1563 173.7905,114.1875 L173.7905,115.2813 Q173.7905,116.5156 174.6812,117.3359 Q175.5718,118.1563 177.1655,118.1563 Q178.103,118.1563 178.7593,117.9063 Q179.1499,117.75 179.5718,117.3125 Q179.8374,117.0469 179.9858,116.9688 Q180.1343,116.8906 180.3374,116.8906 Q180.6655,116.8906 180.9233,117.1484 Q181.1812,117.4063 181.1812,117.75 Q181.1812,118.0938 180.8374,118.5 Q180.3374,119.0781 179.5405,119.4063 Q178.4624,119.8594 177.1655,119.8594 Q175.6499,119.8594 174.4468,119.2344 Q173.4624,118.7344 172.7749,117.6641 Q172.0874,116.5938 172.0874,115.3125 L172.0874,114.1563 Q172.0874,112.8281 172.7046,111.6797 Q173.3218,110.5313 174.4155,109.9141 Q175.5093,109.2969 176.7437,109.2969 Q177.478,109.2969 178.1265,109.4609 Q178.7749,109.625 179.3218,109.9844 Z " fill="#000000"/><text fill="#000000" font-family="sans-serif" font-size="14" lengthAdjust="spacing" textLength="58.3652" x="193.4575" y="119.8379">EmailLog</text><line style="stroke:#181818;stroke-width:0.5;" x1="149.5" x2="266.8789" y1="130.1094" y2="130.1094"/><ellipse cx="159.5" cy="144.4141" fill="none" rx="3" ry="3" style="stroke:#038048;stroke-width:1;"/><text fill="#000000" font-family="sans-serif" font-size="14" lengthAdjust="spacing" textLength="51.3584" x="168.5" y="148.6426">String id</text><ellipse cx="159.5" cy="162.0234" fill="none" rx="3" ry="3" style="stroke:#038048;stroke-width:1;"/><text fill="#000000" font-family="sans-serif" font-size="14" lengthAdjust="spacing" textLength="93.3789" x="168.5" y="166.252">String recipient</text><ellipse cx="159.5" cy="179.6328" fill="none" rx="3" ry="3" style="stroke:#038048;stroke-width:1;"/><text fill="#000000" font-family="sans-serif" font-size="14" lengthAdjust="spacing" textLength="84.8203" x="168.5" y="183.8613">String subject</text><line style="stroke:#181818;stroke-width:0.5;" x1="149.5" x2="266.8789" y1="190.9375" y2="190.9375"/></g><!--class Setting--><g class="entity" data-entity="Setting" data-source-line="51" data-uid="ent0009" id="entity_Setting"><rect fill="#F1F1F1" height="83.2188" rx="2.5" ry="2.5" style="stroke:#181818;stroke-width:0.5;" width="90.5859" x="22.5" y="107.1094"/><ellipse cx="44.25" cy="123.1094" fill="#ADD1B2" rx="11" ry="11" style="stroke:#181818;stroke-width:1;"/><path d="M47.0156,118.9844 Q47.1719,118.7656 47.3594,118.6563 Q47.5469,118.5469 47.7656,118.5469 Q48.1406,118.5469 48.375,118.8047 Q48.6094,119.0625 48.6094,119.6719 L48.6094,121.125 Q48.6094,121.7344 48.375,122 Q48.1406,122.2656 47.7656,122.2656 Q47.4219,122.2656 47.2188,122.0625 Q47.0156,121.875 46.9063,121.3594 Q46.8594,121 46.6719,120.8125 Q46.3438,120.4375 45.7344,120.2188 Q45.125,120 44.5,120 Q43.7344,120 43.1016,120.3281 Q42.4688,120.6563 41.9766,121.4063 Q41.4844,122.1563 41.4844,123.1875 L41.4844,124.2813 Q41.4844,125.5156 42.375,126.3359 Q43.2656,127.1563 44.8594,127.1563 Q45.7969,127.1563 46.4531,126.9063 Q46.8438,126.75 47.2656,126.3125 Q47.5313,126.0469 47.6797,125.9688 Q47.8281,125.8906 48.0313,125.8906 Q48.3594,125.8906 48.6172,126.1484 Q48.875,126.4063 48.875,126.75 Q48.875,127.0938 48.5313,127.5 Q48.0313,128.0781 47.2344,128.4063 Q46.1563,128.8594 44.8594,128.8594 Q43.3438,128.8594 42.1406,128.2344 Q41.1563,127.7344 40.4688,126.6641 Q39.7813,125.5938 39.7813,124.3125 L39.7813,123.1563 Q39.7813,121.8281 40.3984,120.6797 Q41.0156,119.5313 42.1094,118.9141 Q43.2031,118.2969 44.4375,118.2969 Q45.1719,118.2969 45.8203,118.4609 Q46.4688,118.625 47.0156,118.9844 Z " fill="#000000"/><text fill="#000000" font-family="sans-serif" font-size="14" lengthAdjust="spacing" textLength="43.5859" x="59.75" y="128.8379">Setting</text><line style="stroke:#181818;stroke-width:0.5;" x1="23.5" x2="112.0859" y1="139.1094" y2="139.1094"/><ellipse cx="33.5" cy="153.4141" fill="none" rx="3" ry="3" style="stroke:#038048;stroke-width:1;"/><text fill="#000000" font-family="sans-serif" font-size="14" lengthAdjust="spacing" textLength="62.248" x="42.5" y="157.6426">String key</text><ellipse cx="33.5" cy="171.0234" fill="none" rx="3" ry="3" style="stroke:#038048;stroke-width:1;"/><text fill="#000000" font-family="sans-serif" font-size="14" lengthAdjust="spacing" textLength="64.5859" x="42.5" y="175.252">Text value</text><line style="stroke:#181818;stroke-width:0.5;" x1="23.5" x2="112.0859" y1="182.3281" y2="182.3281"/></g><!--link User to TimeLog--><g class="link" data-entity-1="User" data-entity-2="TimeLog" data-source-line="57" data-uid="lnk10" id="link_User_TimeLog"><path codeLine="57" d="M474.47,200.4694 C458.44,215.2794 440.96,231.5294 425,246.6094 C408.71,261.9994 391.3,278.6894 374.97,294.4494" fill="none" id="User-TimeLog" style="stroke:#181818;stroke-width:1;"/><text fill="#000000" font-family="sans-serif" font-size="13" lengthAdjust="spacing" textLength="81.6309" x="426" y="261.1045">creates/marks</text><text fill="#000000" font-family="sans-serif" font-size="13" lengthAdjust="spacing" textLength="7.23" x="459.1972" y="204.1537">1</text><text fill="#000000" font-family="sans-serif" font-size="13" lengthAdjust="spacing" textLength="19.5127" x="362.5102" y="283.6312">0..*</text></g><!--link User to BulkSubmission--><g class="link" data-entity-1="User" data-entity-2="BulkSubmission" data-source-line="58" data-uid="lnk11" id="link_User_BulkSubmission"><path codeLine="58" d="M522.09,216.6894 C519.16,241.5594 515.83,269.7394 512.9,294.5994" fill="none" id="User-BulkSubmission" style="stroke:#181818;stroke-width:1;"/><text fill="#000000" font-family="sans-serif" font-size="13" lengthAdjust="spacing" textLength="44.7891" x="519" y="261.1045">submits</text><text fill="#000000" font-family="sans-serif" font-size="13" lengthAdjust="spacing" textLength="7.23" x="513.9341" y="238.046">1</text><text fill="#000000" font-family="sans-serif" font-size="13" lengthAdjust="spacing" textLength="19.5127" x="493.7787" y="283.7976">0..*</text></g><!--link BulkSubmission to BulkSubmissionEntry--><g class="link" data-entity-1="BulkSubmission" data-entity-2="BulkSubmissionEntry" data-source-line="59" data-uid="lnk12" id="link_BulkSubmission_BulkSubmissionEntry"><path codeLine="59" d="M500.89,430.9194 C499.42,455.1194 497.73,482.7394 496.18,508.2494" fill="none" id="BulkSubmission-BulkSubmissionEntry" style="stroke:#181818;stroke-width:1;"/><text fill="#000000" font-family="sans-serif" font-size="13" lengthAdjust="spacing" textLength="48.4199" x="499" y="475.1045">contains</text><text fill="#000000" font-family="sans-serif" font-size="13" lengthAdjust="spacing" textLength="7.23" x="493.1413" y="452.2997">1</text><text fill="#000000" font-family="sans-serif" font-size="13" lengthAdjust="spacing" textLength="19.5127" x="476.8462" y="497.6821">0..*</text></g><!--link Event to TimeLog--><g class="link" data-entity-1="Event" data-entity-2="TimeLog" data-source-line="60" data-uid="lnk13" id="link_Event_TimeLog"><path codeLine="60" d="M315.61,216.7294 C310.06,226.2894 305.27,236.3694 302,246.6094 C297.17,261.7394 295.72,278.5594 296.03,294.5694" fill="none" id="Event-TimeLog" style="stroke:#181818;stroke-width:1;"/><text fill="#000000" font-family="sans-serif" font-size="13" lengthAdjust="spacing" textLength="61.4199" x="303" y="261.1045">references</text><text fill="#000000" font-family="sans-serif" font-size="13" lengthAdjust="spacing" textLength="7.23" x="302.5243" y="238.0901">1</text><text fill="#000000" font-family="sans-serif" font-size="13" lengthAdjust="spacing" textLength="19.5127" x="274.9361" y="283.7643">0..*</text></g><!--SRC=[XLDDJyCm3BttLrWzWZRWkXlxG4AmKpUkKPQQ4PecK-9CJ8Z_JfgnGjgj7FDiFxyysoH98Tol7wVmiYnW14zuWBcfkTGmKzmvT5csuwBYMuHyPYp2qfIeN0wV6O1eKc3jqCOdm7L1Lkejo39vOY1K2Q9vZGbWZKe1eVo6HPwlh6srsAEcuLw_p7DEk98rWYDkYP7hmAZB5lmfLaPmaaQdNPliPxCTxkl8bq4Sw_yL6z7ibFwW32SGN0clWfAIlHblNOUAatUfXgbNLU4tjNGkw1kM4grJo4kqh1FQMVEEWbZF_xPdW5RuGH1biP8J7nAoq6GFmseseO2vje9Td5T_MOvUzGtgBSivnnODpxzZioZaJeO1fNn-qzWK2Kzy1H8riPIkmiCVq_PSUOnLGKYyY_mkXz48yjln-2flDsa2mcAOlhkfkQtSkTJEm2SGBGpxsWaCLHsd4vePJU6aNNQydqkQBBwYHIt2qNy3]--></g></svg>