<svg xmlns="http://www.w3.org/2000/svg" xmlns:xlink="http://www.w3.org/1999/xlink" contentStyleType="text/css" data-diagram-type="DESCRIPTION" height="613px" preserveAspectRatio="none" style="width:643px;height:613px;background:#FFFFFF;" version="1.1" viewBox="0 0 643 613" width="643px" zoomAndPan="magnify"><title>VMS Component Diagram</title><defs/><g><g class="title" data-source-line="1"><text fill="#000000" font-family="sans-serif" font-size="14" font-weight="bold" lengthAdjust="spacing" textLength="171.9033" x="228.887" y="24.5332">VMS Component Diagram</text></g><!--entity UI--><g class="entity" data-entity="UI" data-source-line="3" data-uid="ent0002" id="entity_UI"><rect fill="#F1F1F1" height="47.6094" rx="2.5" ry="2.5" style="stroke:#181818;stroke-width:0.5;" width="184.7031" x="271.5" y="45.6094"/><rect fill="#F1F1F1" height="10" style="stroke:#181818;stroke-width:0.5;" width="15" x="436.2031" y="50.6094"/><rect fill="#F1F1F1" height="2" style="stroke:#181818;stroke-width:0.5;" width="4" x="434.2031" y="52.6094"/><rect fill="#F1F1F1" height="2" style="stroke:#181818;stroke-width:0.5;" width="4" x="434.2031" y="56.6094"/><text fill="#000000" font-family="sans-serif" font-size="14" lengthAdjust="spacing" textLength="144.7031" x="286.5" y="80.1426">Web UI (templates, JS)</text></g><!--entity App--><g class="entity" data-entity="App" data-source-line="4" data-uid="ent0003" id="entity_App"><rect fill="#F1F1F1" height="47.6094" rx="2.5" ry="2.5" style="stroke:#181818;stroke-width:0.5;" width="141.124" x="293.5" y="297.6094"/><rect fill="#F1F1F1" height="10" style="stroke:#181818;stroke-width:0.5;" width="15" x="414.624" y="302.6094"/><rect fill="#F1F1F1" height="2" style="stroke:#181818;stroke-width:0.5;" width="4" x="412.624" y="304.6094"/><rect fill="#F1F1F1" height="2" style="stroke:#181818;stroke-width:0.5;" width="4" x="412.624" y="308.6094"/><text fill="#000000" font-family="sans-serif" font-size="14" lengthAdjust="spacing" textLength="101.124" x="308.5" y="332.1426">Flask App (vms)</text></g><!--entity WSGI--><g class="entity" data-entity="WSGI" data-source-line="5" data-uid="ent0004" id="entity_WSGI"><rect fill="#F1F1F1" height="47.6094" rx="2.5" ry="2.5" style="stroke:#181818;stroke-width:0.5;" width="145.8066" x="291" y="171.6094"/><rect fill="#F1F1F1" height="10" style="stroke:#181818;stroke-width:0.5;" width="15" x="416.8066" y="176.6094"/><rect fill="#F1F1F1" height="2" style="stroke:#181818;stroke-width:0.5;" width="4" x="414.8066" y="178.6094"/><rect fill="#F1F1F1" height="2" style="stroke:#181818;stroke-width:0.5;" width="4" x="414.8066" y="182.6094"/><text fill="#000000" font-family="sans-serif" font-size="14" lengthAdjust="spacing" textLength="105.8066" x="306" y="206.1426">Gunicorn / WSGI</text></g><!--entity DB--><g class="entity" data-entity="DB" data-source-line="6" data-uid="ent0005" id="entity_DB"><path d="M238.5,560.1094 C238.5,550.1094 276.124,550.1094 276.124,550.1094 C276.124,550.1094 313.748,550.1094 313.748,560.1094 L313.748,586.7188 C313.748,596.7188 276.124,596.7188 276.124,596.7188 C276.124,596.7188 238.5,596.7188 238.5,586.7188 L238.5,560.1094" fill="#F1F1F1" style="stroke:#181818;stroke-width:0.5;"/><path d="M238.5,560.1094 C238.5,570.1094 276.124,570.1094 276.124,570.1094 C276.124,570.1094 313.748,570.1094 313.748,560.1094" fill="none" style="stroke:#181818;stroke-width:0.5;"/><text fill="#000000" font-family="sans-serif" font-size="14" lengthAdjust="spacing" textLength="55.248" x="248.5" y="588.6426">Postgres</text></g><!--entity SMTP--><g class="entity" data-entity="SMTP" data-source-line="7" data-uid="ent0006" id="entity_SMTP"><rect fill="#F1F1F1" height="47.6094" rx="2.5" ry="2.5" style="stroke:#181818;stroke-width:0.5;" width="161.3516" x="411.5" y="549.6094"/><rect fill="#F1F1F1" height="10" style="stroke:#181818;stroke-width:0.5;" width="15" x="552.8516" y="554.6094"/><rect fill="#F1F1F1" height="2" style="stroke:#181818;stroke-width:0.5;" width="4" x="550.8516" y="556.6094"/><rect fill="#F1F1F1" height="2" style="stroke:#181818;stroke-width:0.5;" width="4" x="550.8516" y="560.6094"/><text fill="#000000" font-family="sans-serif" font-size="14" lengthAdjust="spacing" textLength="121.3516" x="426.5" y="584.1426">SMTP / Mail Server</text></g><!--entity Worker--><g class="entity" data-entity="Worker" data-source-line="8" data-uid="ent0007" id="entity_Worker"><rect fill="#F1F1F1" height="47.6094" rx="2.5" ry="2.5" style="stroke:#181818;stroke-width:0.5;" width="225.9717" x="286" y="423.6094"/><rect fill="#F1F1F1" height="10" style="stroke:#181818;stroke-width:0.5;" width="15" x="491.9717" y="428.6094"/><rect fill="#F1F1F1" height="2" style="stroke:#181818;stroke-width:0.5;" width="4" x="489.9717" y="430.6094"/><rect fill="#F1F1F1" height="2" style="stroke:#181818;stroke-width:0.5;" width="4" x="489.9717" y="434.6094"/><text fill="#000000" font-family="sans-serif" font-size="14" lengthAdjust="spacing" textLength="185.9717" x="301" y="458.1426">Background Worker (optional)</text></g><g class="entity" data-entity="GMN15" data-source-line="18" data-uid="ent0016" id="entity_GMN15"><path d="M6,308.6094 L6,334.9609 A0,0 0 0 0 6,334.9609 L258.2324,334.9609 A0,0 0 0 0 258.2324,334.9609 L258.2324,326.6094 L293.48,321.6094 L258.2324,318.6094 L258.2324,318.6094 L248.2324,308.6094 L6,308.6094 A0,0 0 0 0 6,308.6094" fill="#FEFFDD" style="stroke:#181818;stroke-width:0.5;"/><path d="M248.2324,308.6094 L248.2324,318.6094 L258.2324,318.6094 L248.2324,308.6094" fill="#FEFFDD" style="stroke:#181818;stroke-width:0.5;"/><text fill="#000000" font-family="sans-serif" font-size="13" lengthAdjust="spacing" textLength="231.2324" x="12" y="327.1045">Blueprints: auth, club, officer, admin, log</text></g><!--link UI to WSGI--><g class="link" data-entity-1="UI" data-entity-2="WSGI" data-source-line="10" data-uid="lnk8" id="link_UI_WSGI"><path d="M364,93.6394 C364,115.7794 364,143.0494 364,165.2794" fill="none" id="UI-to-WSGI" style="stroke:#181818;stroke-width:1;"/><polygon fill="#181818" points="364,171.2794,368,162.2794,364,166.2794,360,162.2794,364,171.2794" style="stroke:#181818;stroke-width:1;"/><text fill="#000000" font-family="sans-serif" font-size="13" lengthAdjust="spacing" textLength="33.9409" x="365" y="138.1045">HTTP</text></g><!--link WSGI to App--><g class="link" data-entity-1="WSGI" data-entity-2="App" data-source-line="11" data-uid="lnk9" id="link_WSGI_App"><path d="M364,219.6394 C364,241.7794 364,269.0494 364,291.2794" fill="none" id="WSGI-to-App" style="stroke:#181818;stroke-width:1;"/><polygon fill="#181818" points="364,297.2794,368,288.2794,364,292.2794,360,288.2794,364,297.2794" style="stroke:#181818;stroke-width:1;"/><text fill="#000000" font-family="sans-serif" font-size="13" lengthAdjust="spacing" textLength="88.8545" x="365" y="264.1045">WSGI Dispatch</text></g><!--link App to DB--><g class="link" data-entity-1="App" data-entity-2="DB" data-source-line="12" data-uid="lnk10" id="link_App_DB"><path d="M293.5,344.4294 C233.51,364.5894 154.24,395.5794 136,423.6094 C100.86,477.6094 180.5392,527.2748 233.0192,553.1648" fill="none" id="App-to-DB" style="stroke:#181818;stroke-width:1;"/><polygon fill="#181818" points="238.4,555.8194,232.0984,548.2503,233.916,553.6073,228.559,555.4248,238.4,555.8194" style="stroke:#181818;stroke-width:1;"/><text fill="#000000" font-family="sans-serif" font-size="13" lengthAdjust="spacing" textLength="130.7681" x="137" y="453.1045">SQLAlchemy (queries)</text></g><!--link App to SMTP--><g class="link" data-entity-1="App" data-entity-2="SMTP" data-source-line="13" data-uid="lnk11" id="link_App_SMTP"><path d="M434.6,332.5494 C484.28,341.1594 544.55,355.4194 560,375.6094 C601.24,429.4794 549.4303,505.5094 516.7003,544.7994" fill="none" id="App-to-SMTP" style="stroke:#181818;stroke-width:1;"/><polygon fill="#181818" points="512.86,549.4094,521.6938,545.0546,516.0602,545.5677,515.5471,539.9342,512.86,549.4094" style="stroke:#181818;stroke-width:1;"/><text fill="#000000" font-family="sans-serif" font-size="13" lengthAdjust="spacing" textLength="60.6772" x="575" y="453.1045">SMTP API</text></g><!--link App to Worker--><g class="link" data-entity-1="App" data-entity-2="Worker" data-source-line="14" data-uid="lnk12" id="link_App_Worker"><path d="M359.02,345.8594 C356.96,359.9894 356.05,378.2194 361,393.6094 C364.46,404.3894 367.367,410.0696 374.067,418.7996" fill="none" id="App-to-Worker" style="stroke:#181818;stroke-width:1;"/><polygon fill="#181818" points="377.72,423.5594,375.4137,413.9844,374.6758,419.5929,369.0673,418.855,377.72,423.5594" style="stroke:#181818;stroke-width:1;"/><text fill="#000000" font-family="sans-serif" font-size="13" lengthAdjust="spacing" textLength="193.6606" x="362" y="390.1045">enqueue jobs (emails, long tasks)</text></g><!--link Worker to DB--><g class="link" data-entity-1="Worker" data-entity-2="DB" data-source-line="15" data-uid="lnk13" id="link_Worker_DB"><path d="M376.15,471.6394 C354.06,493.9194 325.0063,523.2105 302.9463,545.4405" fill="none" id="Worker-to-DB" style="stroke:#181818;stroke-width:1;"/><polygon fill="#181818" points="298.72,549.6994,307.8987,546.1286,302.2419,546.1503,302.2202,540.4935,298.72,549.6994" style="stroke:#181818;stroke-width:1;"/><text fill="#000000" font-family="sans-serif" font-size="13" lengthAdjust="spacing" textLength="57.0781" x="346" y="516.1045">read/write</text></g><!--link Worker to SMTP--><g class="link" data-entity-1="Worker" data-entity-2="SMTP" data-source-line="16" data-uid="lnk14" id="link_Worker_SMTP"><path d="M416.27,471.6394 C432.87,493.7794 454.2303,522.2491 470.9003,544.4791" fill="none" id="Worker-to-SMTP" style="stroke:#181818;stroke-width:1;"/><polygon fill="#181818" points="474.5,549.2794,472.3007,539.6792,471.5003,545.2792,465.9003,544.4788,474.5,549.2794" style="stroke:#181818;stroke-width:1;"/><text fill="#000000" font-family="sans-serif" font-size="13" lengthAdjust="spacing" textLength="62.8672" x="452" y="516.1045">send email</text></g><!--SRC=[JL31ReCm3BtdAwoUg4JLEuT9PMXTfrNgHBUU3HYQDIHPOZhjxvT0XJZ5UU_PViyiMH5y7KjuDhqrcZH38R5ps0jHpz3gGXLy7Y1Xwgr29f_2MxbU0Ve0BuKl2lqDTjP2Sk_zf0Y_fMG_Q5aRfs4Bbt9_62Mn40qoLkW9LYVZkNFaHwx8bztbyNmAdKUK2afoTtAZAC9BMOxrhNDcq0rSZBkHWyHObaQZcanDg10XrMRpD1g035xFOSnOHp36o2QgaDuYrrSHiSWLUQ3AZ_UTgg_K_q7oCv2JvDUpOdIQJS_kT9ZnXvyCI8UUWU3RL1uIwaEaS5TbT0SShXX6FQJpFaVOR7-TP5fIZqMUGjXnYX3QC86Ybi6qCKO6kHh8EgdPPu03NrEerL2bWMzbJIu5R7gfu_fE_0C0]--></g></svg>