<svg xmlns="http://www.w3.org/2000/svg" xmlns:xlink="http://www.w3.org/1999/xlink" contentStyleType="text/css" data-diagram-type="DESCRIPTION" height="429px" preserveAspectRatio="none" style="width:1128px;height:429px;background:#FFFFFF;" version="1.1" viewBox="0 0 1128 429" width="1128px" zoomAndPan="magnify"><title>VMS Deployment Diagram (Docker Compose)</title><defs/><g><g class="title" data-source-line="1"><text fill="#000000" font-family="sans-serif" font-size="14" font-weight="bold" lengthAdjust="spacing" textLength="302.6201" x="405.7387" y="24.5332">VMS Deployment Diagram (Docker Compose)</text></g><!--cluster host--><g class="cluster" data-entity="host" data-source-line="3" data-uid="ent0002" id="cluster_host"><polygon fill="none" points="76.5935,175.9552,86.5935,165.9552,617.5935,165.9552,617.5935,402.9552,607.5935,412.9552,76.5935,412.9552,76.5935,175.9552" style="stroke:#181818;stroke-width:1;"/><line style="stroke:#181818;stroke-width:1;" x1="607.5935" x2="617.5935" y1="175.9552" y2="165.9552"/><line style="stroke:#181818;stroke-width:1;" x1="76.5935" x2="607.5935" y1="175.9552" y2="175.9552"/><line style="stroke:#181818;stroke-width:1;" x1="607.5935" x2="607.5935" y1="175.9552" y2="412.9552"/><text fill="#000000" font-family="sans-serif" font-size="14" font-weight="bold" lengthAdjust="spacing" textLength="63.7793" x="311.2039" y="193.4884">Host / VM</text></g><!--entity nginx--><g class="entity" data-entity="nginx" data-source-line="4" data-uid="ent0003" id="entity_nginx"><rect fill="#F1F1F1" height="47.6094" rx="2.5" ry="2.5" style="stroke:#181818;stroke-width:0.5;" width="173.8135" x="108.5935" y="340.9552"/><rect fill="#F1F1F1" height="10" style="stroke:#181818;stroke-width:0.5;" width="15" x="262.407" y="345.9552"/><rect fill="#F1F1F1" height="2" style="stroke:#181818;stroke-width:0.5;" width="4" x="260.407" y="347.9552"/><rect fill="#F1F1F1" height="2" style="stroke:#181818;stroke-width:0.5;" width="4" x="260.407" y="351.9552"/><text fill="#000000" font-family="sans-serif" font-size="14" lengthAdjust="spacing" textLength="133.8135" x="123.5935" y="375.4884">Nginx (reverse proxy)</text></g><!--entity compose--><g class="entity" data-entity="compose" data-source-line="5" data-uid="ent0004" id="entity_compose"><rect fill="#F1F1F1" height="47.6094" rx="2.5" ry="2.5" style="stroke:#181818;stroke-width:0.5;" width="148.1514" x="145.5935" y="214.9552"/><rect fill="#F1F1F1" height="10" style="stroke:#181818;stroke-width:0.5;" width="15" x="273.7449" y="219.9552"/><rect fill="#F1F1F1" height="2" style="stroke:#181818;stroke-width:0.5;" width="4" x="271.7449" y="221.9552"/><rect fill="#F1F1F1" height="2" style="stroke:#181818;stroke-width:0.5;" width="4" x="271.7449" y="225.9552"/><text fill="#000000" font-family="sans-serif" font-size="14" lengthAdjust="spacing" textLength="108.1514" x="160.5935" y="249.4884">Docker Compose</text></g><!--entity web--><g class="entity" data-entity="web" data-source-line="7" data-uid="ent0006" id="entity_web"><ellipse cx="394.5935" cy="364.9552" fill="#F1F1F1" rx="8" ry="8" style="stroke:#181818;stroke-width:0.5;"/><text fill="#000000" font-family="sans-serif" font-size="14" lengthAdjust="spacing" textLength="25.6826" x="381.7522" y="396.4884">web</text></g><!--entity db--><g class="entity" data-entity="db" data-source-line="8" data-uid="ent0008" id="entity_db"><ellipse cx="584.5935" cy="364.9552" fill="#F1F1F1" rx="8" ry="8" style="stroke:#181818;stroke-width:0.5;"/><text fill="#000000" font-family="sans-serif" font-size="14" lengthAdjust="spacing" textLength="15.5723" x="576.8074" y="396.4884">db</text></g><g class="entity" data-entity="GMN12" data-source-line="13" data-uid="ent0013" id="entity_GMN12"><path d="M641.5935,351.9552 L641.5935,360.9552 L593.8735,364.9552 L641.5935,368.9552 L641.5935,378.3067 A0,0 0 0 0 641.5935,378.3067 L1121.0974,378.3067 A0,0 0 0 0 1121.0974,378.3067 L1121.0974,361.9552 L1111.0974,351.9552 L641.5935,351.9552 A0,0 0 0 0 641.5935,351.9552" fill="#FEFFDD" style="stroke:#181818;stroke-width:0.5;"/><path d="M1111.0974,351.9552 L1111.0974,361.9552 L1121.0974,361.9552 L1111.0974,351.9552" fill="#FEFFDD" style="stroke:#181818;stroke-width:0.5;"/><text fill="#000000" font-family="sans-serif" font-size="13" lengthAdjust="spacing" textLength="458.5039" x="647.5935" y="370.4503">For production use a managed DB+TLS (RDS, Cloud SQL) and a load balancer</text></g><!--entity ci--><g class="entity" data-entity="ci" data-source-line="15" data-uid="ent0015" id="entity_ci"><path d="M19.5446,55.7753 C22.8285,50.0166 26.5049,49.0913 31.1035,54.4025 C33.1366,50.1189 37.5656,48.9899 40.7192,53.1222 C43.699,47.9792 48.202,47.3884 52.3043,51.7548 C55.4122,45.9489 60.5593,45.9653 64.1529,51.2353 C66.5371,46.7938 71.4834,46.1214 74.5162,50.4706 C78.6293,45.3329 82.7603,45.6234 86.5786,50.8149 C88.9593,45.5347 93.9872,44.6094 97.5023,49.6093 C100.863,45.4671 105.0025,46.0694 107.4645,50.6372 C111.7337,46.1519 116.8641,45.7529 119.363,52.5107 C122.4279,47.6056 126.4091,48.299 129.3351,52.6603 C133.6427,47.4853 139.0815,47.6848 141.689,54.4232 C144.3415,49.4948 148.4728,49.6758 151.499,54.0281 C159.1367,58.0171 160.9561,65.6365 153.1646,71.1283 C160.8341,76.9734 160.0771,81.5453 152.1746,86.3796 C149.126,92.1057 144.2646,90.7372 141.451,86.1356 C138.7662,91.4509 134.0824,91.0178 131.1148,86.4309 C127.8497,91.2469 122.6265,92.1796 119.2768,86.5266 C116.1588,93.0959 112.1742,92.2258 107.8844,87.7333 C104.7204,93.1268 100.758,92.9777 97.2778,88.0585 C93.7749,94.6357 88.7578,93.4865 84.8062,88.5443 C81.5822,92.9318 76.2212,93.501 73.6067,87.8635 C70.7124,92.6707 66.791,92.9372 64.0541,87.7136 C61.0641,92.7736 56.6462,94.1383 53.0295,88.3505 C48.9721,93.9546 43.8762,92.0613 41.6708,86.4713 C38.808,92.2482 33.6181,92.6256 30.3915,86.8256 C27.6676,92.5525 22.1489,93.7308 18.5397,87.7195 C8.38,85.3358 6,79.7169 10.513,70.4955 C6.221,62.5243 10.182,55.3688 19.5446,55.7753" fill="#F1F1F1" style="stroke:#181818;stroke-width:0.5;"/><text fill="#000000" font-family="sans-serif" font-size="14" lengthAdjust="spacing" textLength="119.041" x="25.0935" y="75.4884">CI / GitHub Actions</text></g><!--link compose to nginx--><g class="link" data-entity-1="compose" data-entity-2="nginx" data-source-line="6" data-uid="lnk5" id="link_compose_nginx"><path d="M199.4235,263.1652 C193.0735,271.9152 186.8635,282.3252 183.5935,292.9552 C178.7835,308.6052 180.2676,321.1009 184.5976,335.1609" fill="none" id="compose-to-nginx" style="stroke:#181818;stroke-width:1;"/><polygon fill="#181818" points="186.3635,340.8952,187.5374,331.1165,184.8919,336.1166,179.8918,333.4711,186.3635,340.8952" style="stroke:#181818;stroke-width:1;"/></g><!--link compose to web--><g class="link" data-entity-1="compose" data-entity-2="web" data-source-line="7" data-uid="lnk7" id="link_compose_web"><path d="M211.6235,263.2652 C208.0335,278.3052 206.5635,297.5052 216.5935,310.9552 C221.8935,318.0652 343.7415,350.5664 379.5315,359.9964" fill="none" id="compose-to-web" style="stroke:#181818;stroke-width:1;"/><polygon fill="#181818" points="385.3335,361.5252,377.6497,355.3641,380.4985,360.2512,375.6114,363.1001,385.3335,361.5252" style="stroke:#181818;stroke-width:1;"/><text fill="#000000" font-family="sans-serif" font-size="13" lengthAdjust="spacing" textLength="193.2734" x="217.5935" y="307.4503">runs container (Gunicorn + Flask)</text></g><!--link compose to db--><g class="link" data-entity-1="compose" data-entity-2="db" data-source-line="8" data-uid="lnk9" id="link_compose_db"><path d="M293.8235,257.5352 C330.7835,266.9152 375.9235,279.3252 415.5935,292.9552 C477.8935,314.3552 544.5162,345.0171 569.8062,356.9371" fill="none" id="compose-to-db" style="stroke:#181818;stroke-width:1;"/><polygon fill="#181818" points="575.2335,359.4952,568.7979,352.0398,570.7107,357.3634,565.3871,359.2763,575.2335,359.4952" style="stroke:#181818;stroke-width:1;"/><text fill="#000000" font-family="sans-serif" font-size="13" lengthAdjust="spacing" textLength="137.2935" x="463.5935" y="307.4503">runs Postgres container</text></g><!--link web to db--><g class="link" data-entity-1="web" data-entity-2="db" data-source-line="11" data-uid="lnk10" id="link_web_db"><path d="M403.7535,364.9552 C435.9335,364.9552 537.4935,364.9552 569.5235,364.9552" fill="none" id="web-to-db" style="stroke:#181818;stroke-width:1;"/><polygon fill="#181818" points="575.5235,364.9552,566.5235,360.9552,570.5235,364.9552,566.5235,368.9552,575.5235,364.9552" style="stroke:#181818;stroke-width:1;"/><text fill="#000000" font-family="sans-serif" font-size="13" lengthAdjust="spacing" textLength="135.8208" x="422.0935" y="358.4503">DATABASE_URL (env)</text></g><!--link nginx to web--><g class="link" data-entity-1="nginx" data-entity-2="web" data-source-line="12" data-uid="lnk11" id="link_nginx_web"><path d="M282.8735,364.9552 C323.6035,364.9552 361.1035,364.9552 379.5235,364.9552" fill="none" id="nginx-to-web" style="stroke:#181818;stroke-width:1;"/><polygon fill="#181818" points="385.5235,364.9552,376.5235,360.9552,380.5235,364.9552,376.5235,368.9552,385.5235,364.9552" style="stroke:#181818;stroke-width:1;"/><text fill="#000000" font-family="sans-serif" font-size="13" lengthAdjust="spacing" textLength="66.479" x="301.0935" y="358.4503">proxy_pass</text></g><!--link ci to host--><g class="link" data-entity-1="ci" data-entity-2="host" data-source-line="16" data-uid="lnk16" id="link_ci_host"><path d="M84.5935,94.1752 C84.5935,105.4677 84.5935,119.9095 84.5935,135.2669 C84.5935,142.9455 84.5935,150.8531 84.5935,158.7103 C84.5935,160.6745 84.5935,162.6357 84.5935,164.5893 C84.5935,164.8335 84.5935,159.0776 84.5935,159.3216" fill="none" id="ci-to-host" style="stroke:#181818;stroke-width:1;"/><polygon fill="#181818" points="84.5935,165.3216,88.5935,156.3216,84.5935,160.3216,80.5935,156.3216,84.5935,165.3216" style="stroke:#181818;stroke-width:1;"/><text fill="#000000" font-family="sans-serif" font-size="13" lengthAdjust="spacing" textLength="145.2407" x="85.5935" y="138.4503">deploy artifacts (optional)</text></g><!--SRC=[NL5DJm8n4BttLxnmsWqIxtimMLW14pJAeXT3oD3MfM6ttRHTX1Z_kzsY1htDz7tCpAjNlfPukIzHoBOsfqPgZq9HPQb1KXY-bnOJqxJ6oPGnROJ4O6wSntLG3K0EkxxxOC3hGwNq4OcL1scTH6lDyPIkUuxkaPxorp5Y_5m7zBl2Q7JpgxXyUvVR3BRJlKPxKZeu9RDEAswinX3Jcjm-_ISIFvh7i6TbvOMOVJ8MF15Po53agtoSbxURv-K2YTI7bCKrS9uT6F6aJKlEXIYyX5NLpcUO6jj3ekDU6OqkZ2OqfAcI0iLuk5gKI9P5UOL9RJg1yccHWhG8hDgGm9PgqZmin7Z41vExaEzC-NctHHvDNSoQAyPLF2kcda74NmDPhzw8UuV4j3sTwfHz0G00]--></g></svg>