<svg xmlns="http://www.w3.org/2000/svg" xmlns:xlink="http://www.w3.org/1999/xlink" contentStyleType="text/css" data-diagram-type="SEQUENCE" height="680px" preserveAspectRatio="none" style="width:1291px;height:680px;background:#FFFFFF;" version="1.1" viewBox="0 0 1291 680" width="1291px" zoomAndPan="magnify"><title>Officer reviews a bulk submission and approves/rejects entries</title><defs/><g><text fill="#000000" font-family="sans-serif" font-size="14" font-weight="bold" lengthAdjust="spacing" textLength="420.1641" x="434.7825" y="29.5332">Officer reviews a bulk submission and approves/rejects entries</text><rect fill="none" height="139.7578" style="stroke:#000000;stroke-width:1.5;" width="1207.2603" x="10" y="441.7344"/><g><title>Officer</title><rect fill="#000000" fill-opacity="0.00000" height="477.2734" width="8" x="39.6138" y="121.2188"/><line style="stroke:#181818;stroke-width:0.5;stroke-dasharray:5,5;" x1="43" x2="43" y1="121.2188" y2="598.4922"/></g><g><title>Web UI</title><rect fill="#000000" fill-opacity="0.00000" height="477.2734" width="8" x="326.9971" y="121.2188"/><line style="stroke:#181818;stroke-width:0.5;stroke-dasharray:5,5;" x1="330.6592" x2="330.6592" y1="121.2188" y2="598.4922"/></g><g><title>Officer Blueprint</title><rect fill="#000000" fill-opacity="0.00000" height="477.2734" width="8" x="622.3213" y="121.2188"/><line style="stroke:#181818;stroke-width:0.5;stroke-dasharray:5,5;" x1="626.1353" x2="626.1353" y1="121.2188" y2="598.4922"/></g><g><title>DB .BulkSubmission . BulkSubmissionEntry.</title><rect fill="#000000" fill-opacity="0.00000" height="477.2734" width="8" x="1058.1572" y="121.2188"/><line style="stroke:#181818;stroke-width:0.5;stroke-dasharray:5,5;" x1="1062.0542" x2="1062.0542" y1="121.2188" y2="598.4922"/></g><g><title>TimeLog</title><rect fill="#000000" fill-opacity="0.00000" height="477.2734" width="8" x="1247.4946" y="121.2188"/><line style="stroke:#181818;stroke-width:0.5;stroke-dasharray:5,5;" x1="1251.2603" x2="1251.2603" y1="121.2188" y2="598.4922"/></g><g class="participant participant-head" data-participant="Officer"><text fill="#000000" font-family="sans-serif" font-size="14" lengthAdjust="spacing" textLength="41.2275" x="20" y="118.1426">Officer</text><ellipse cx="43.6138" cy="52.1094" fill="#E2E2F0" rx="8" ry="8" style="stroke:#181818;stroke-width:0.5;"/><path d="M43.6138,60.1094 L43.6138,87.1094 M30.6138,68.1094 L56.6138,68.1094 M43.6138,87.1094 L30.6138,102.1094 M43.6138,87.1094 L56.6138,102.1094" fill="none" style="stroke:#181818;stroke-width:0.5;"/></g><g class="participant participant-tail" data-participant="Officer"><text fill="#000000" font-family="sans-serif" font-size="14" lengthAdjust="spacing" textLength="41.2275" x="20" y="612.0254">Officer</text><ellipse cx="43.6138" cy="623.6016" fill="#E2E2F0" rx="8" ry="8" style="stroke:#181818;stroke-width:0.5;"/><path d="M43.6138,631.6016 L43.6138,658.6016 M30.6138,639.6016 L56.6138,639.6016 M43.6138,658.6016 L30.6138,673.6016 M43.6138,658.6016 L56.6138,673.6016" fill="none" style="stroke:#181818;stroke-width:0.5;"/></g><g class="participant participant-head" data-participant="UI"><rect fill="#E2E2F0" height="31.6094" rx="2.5" ry="2.5" style="stroke:#181818;stroke-width:0.5;" width="60.6758" x="300.6592" y="88.6094"/><text fill="#000000" font-family="sans-serif" font-size="14" lengthAdjust="spacing" textLength="46.6758" x="307.6592" y="110.1426">Web UI</text></g><g class="participant participant-tail" data-participant="UI"><rect fill="#E2E2F0" height="31.6094" rx="2.5" ry="2.5" style="stroke:#181818;stroke-width:0.5;" width="60.6758" x="300.6592" y="597.4922"/><text fill="#000000" font-family="sans-serif" font-size="14" lengthAdjust="spacing" textLength="46.6758" x="307.6592" y="619.0254">Web UI</text></g><g class="participant participant-head" data-participant="OfficerBP"><rect fill="#E2E2F0" height="31.6094" rx="2.5" ry="2.5" style="stroke:#181818;stroke-width:0.5;" width="114.3721" x="569.1353" y="88.6094"/><text fill="#000000" font-family="sans-serif" font-size="14" lengthAdjust="spacing" textLength="100.3721" x="576.1353" y="110.1426">Officer Blueprint</text></g><g class="participant participant-tail" data-participant="OfficerBP"><rect fill="#E2E2F0" height="31.6094" rx="2.5" ry="2.5" style="stroke:#181818;stroke-width:0.5;" width="114.3721" x="569.1353" y="597.4922"/><text fill="#000000" font-family="sans-serif" font-size="14" lengthAdjust="spacing" textLength="100.3721" x="576.1353" y="619.0254">Officer Blueprint</text></g><g class="participant participant-head" data-participant="DB"><rect fill="#E2E2F0" height="31.6094" rx="2.5" ry="2.5" style="stroke:#181818;stroke-width:0.5;" width="290.2061" x="917.0542" y="88.6094"/><text fill="#000000" font-family="sans-serif" font-size="14" lengthAdjust="spacing" textLength="276.2061" x="924.0542" y="110.1426">DB (BulkSubmission / BulkSubmissionEntry)</text></g><g class="participant participant-tail" data-participant="DB"><rect fill="#E2E2F0" height="31.6094" rx="2.5" ry="2.5" style="stroke:#181818;stroke-width:0.5;" width="290.2061" x="917.0542" y="597.4922"/><text fill="#000000" font-family="sans-serif" font-size="14" lengthAdjust="spacing" textLength="276.2061" x="924.0542" y="619.0254">DB (BulkSubmission / BulkSubmissionEntry)</text></g><g class="participant participant-head" data-participant="TimeLogService"><rect fill="#E2E2F0" height="31.6094" rx="2.5" ry="2.5" style="stroke:#181818;stroke-width:0.5;" width="68.4688" x="1217.2603" y="88.6094"/><text fill="#000000" font-family="sans-serif" font-size="14" lengthAdjust="spacing" textLength="54.4688" x="1224.2603" y="110.1426">TimeLog</text></g><g class="participant participant-tail" data-participant="TimeLogService"><rect fill="#E2E2F0" height="31.6094" rx="2.5" ry="2.5" style="stroke:#181818;stroke-width:0.5;" width="68.4688" x="1217.2603" y="597.4922"/><text fill="#000000" font-family="sans-serif" font-size="14" lengthAdjust="spacing" textLength="54.4688" x="1224.2603" y="619.0254">TimeLog</text></g><g class="message" data-participant-1="Officer" data-participant-2="UI"><polygon fill="#181818" points="318.9971,149.5703,328.9971,153.5703,318.9971,157.5703,322.9971,153.5703" style="stroke:#181818;stroke-width:1;"/><line style="stroke:#181818;stroke-width:1;" x1="43.6138" x2="324.9971" y1="153.5703" y2="153.5703"/><text fill="#000000" font-family="sans-serif" font-size="13" lengthAdjust="spacing" textLength="134.4053" x="50.6138" y="148.7139">Open /officer/approvals</text></g><g class="message" data-participant-1="UI" data-participant-2="OfficerBP"><polygon fill="#181818" points="614.3213,179.9219,624.3213,183.9219,614.3213,187.9219,618.3213,183.9219" style="stroke:#181818;stroke-width:1;"/><line style="stroke:#181818;stroke-width:1;" x1="330.9971" x2="620.3213" y1="183.9219" y2="183.9219"/><text fill="#000000" font-family="sans-serif" font-size="13" lengthAdjust="spacing" textLength="151.7407" x="337.9971" y="179.0654">GET pending submissions</text></g><g class="message" data-participant-1="OfficerBP" data-participant-2="DB"><polygon fill="#181818" points="1050.1572,210.2734,1060.1572,214.2734,1050.1572,218.2734,1054.1572,214.2734" style="stroke:#181818;stroke-width:1;"/><line style="stroke:#181818;stroke-width:1;" x1="626.3213" x2="1056.1572" y1="214.2734" y2="214.2734"/><text fill="#000000" font-family="sans-serif" font-size="13" lengthAdjust="spacing" textLength="182.4507" x="633.3213" y="209.417">query BulkSubmission + entries</text></g><g class="message" data-participant-1="DB" data-participant-2="OfficerBP"><polygon fill="#181818" points="637.3213,240.625,627.3213,244.625,637.3213,248.625,633.3213,244.625" style="stroke:#181818;stroke-width:1;"/><line style="stroke:#181818;stroke-width:1;stroke-dasharray:2,2;" x1="631.3213" x2="1061.1572" y1="244.625" y2="244.625"/><text fill="#000000" font-family="sans-serif" font-size="13" lengthAdjust="spacing" textLength="115.5972" x="643.3213" y="239.7686">returns submissions</text></g><g class="message" data-participant-1="OfficerBP" data-participant-2="UI"><polygon fill="#181818" points="341.9971,270.9766,331.9971,274.9766,341.9971,278.9766,337.9971,274.9766" style="stroke:#181818;stroke-width:1;"/><line style="stroke:#181818;stroke-width:1;stroke-dasharray:2,2;" x1="335.9971" x2="625.3213" y1="274.9766" y2="274.9766"/><text fill="#000000" font-family="sans-serif" font-size="13" lengthAdjust="spacing" textLength="130.0889" x="347.9971" y="270.1201">render approvals page</text></g><g class="message" data-participant-1="Officer" data-participant-2="UI"><polygon fill="#181818" points="318.9971,301.3281,328.9971,305.3281,318.9971,309.3281,322.9971,305.3281" style="stroke:#181818;stroke-width:1;"/><line style="stroke:#181818;stroke-width:1;" x1="43.6138" x2="324.9971" y1="305.3281" y2="305.3281"/><text fill="#000000" font-family="sans-serif" font-size="13" lengthAdjust="spacing" textLength="227.2461" x="50.6138" y="300.4717">select entries -&gt; click Approve Selected</text></g><g class="message" data-participant-1="UI" data-participant-2="OfficerBP"><polygon fill="#181818" points="614.3213,331.6797,624.3213,335.6797,614.3213,339.6797,618.3213,335.6797" style="stroke:#181818;stroke-width:1;"/><line style="stroke:#181818;stroke-width:1;" x1="330.9971" x2="620.3213" y1="335.6797" y2="335.6797"/><text fill="#000000" font-family="sans-serif" font-size="13" lengthAdjust="spacing" textLength="231.9497" x="337.9971" y="330.8232">POST approve_selected with entry_ids[]</text></g><g class="message" data-participant-1="OfficerBP" data-participant-2="DB"><polygon fill="#181818" points="1050.1572,362.0313,1060.1572,366.0313,1050.1572,370.0313,1054.1572,366.0313" style="stroke:#181818;stroke-width:1;"/><line style="stroke:#181818;stroke-width:1;" x1="626.3213" x2="1056.1572" y1="366.0313" y2="366.0313"/><text fill="#000000" font-family="sans-serif" font-size="13" lengthAdjust="spacing" textLength="395.2495" x="633.3213" y="361.1748">for each entry -&gt; create TimeLog &amp; update entry.status=APPROVED</text></g><g class="message" data-participant-1="OfficerBP" data-participant-2="DB"><polygon fill="#181818" points="1050.1572,392.3828,1060.1572,396.3828,1050.1572,400.3828,1054.1572,396.3828" style="stroke:#181818;stroke-width:1;"/><line style="stroke:#181818;stroke-width:1;" x1="626.3213" x2="1056.1572" y1="396.3828" y2="396.3828"/><text fill="#000000" font-family="sans-serif" font-size="13" lengthAdjust="spacing" textLength="411.8359" x="633.3213" y="391.5264">update BulkSubmission status (PARTIALLY_APPROVED/APPROVED)</text></g><g class="message" data-participant-1="OfficerBP" data-participant-2="UI"><polygon fill="#181818" points="341.9971,422.7344,331.9971,426.7344,341.9971,430.7344,337.9971,426.7344" style="stroke:#181818;stroke-width:1;"/><line style="stroke:#181818;stroke-width:1;stroke-dasharray:2,2;" x1="335.9971" x2="625.3213" y1="426.7344" y2="426.7344"/><text fill="#000000" font-family="sans-serif" font-size="13" lengthAdjust="spacing" textLength="148.8525" x="347.9971" y="421.8779">redirect back to approvals</text></g><path d="M10,441.7344 L70.1709,441.7344 L70.1709,450.0859 L60.1709,460.0859 L10,460.0859 L10,441.7344" fill="#EEEEEE" style="stroke:#000000;stroke-width:1.5;"/><rect fill="none" height="139.7578" style="stroke:#000000;stroke-width:1.5;" width="1207.2603" x="10" y="441.7344"/><text fill="#000000" font-family="sans-serif" font-size="13" font-weight="bold" lengthAdjust="spacing" textLength="15.1709" x="25" y="456.2295">alt</text><text fill="#000000" font-family="sans-serif" font-size="11" font-weight="bold" lengthAdjust="spacing" textLength="126.5537" x="85.1709" y="455.1533">[officer rejects selected]</text><g class="message" data-participant-1="Officer" data-participant-2="UI"><polygon fill="#181818" points="318.9971,478.4375,328.9971,482.4375,318.9971,486.4375,322.9971,482.4375" style="stroke:#181818;stroke-width:1;"/><line style="stroke:#181818;stroke-width:1;" x1="43.6138" x2="324.9971" y1="482.4375" y2="482.4375"/><text fill="#000000" font-family="sans-serif" font-size="13" lengthAdjust="spacing" textLength="263.3833" x="50.6138" y="477.5811">input rejection reason -&gt; click Reject Selected</text></g><g class="message" data-participant-1="UI" data-participant-2="OfficerBP"><polygon fill="#181818" points="614.3213,508.7891,624.3213,512.7891,614.3213,516.7891,618.3213,512.7891" style="stroke:#181818;stroke-width:1;"/><line style="stroke:#181818;stroke-width:1;" x1="330.9971" x2="620.3213" y1="512.7891" y2="512.7891"/><text fill="#000000" font-family="sans-serif" font-size="13" lengthAdjust="spacing" textLength="271.3242" x="337.9971" y="507.9326">POST reject_selected with entry_ids[] + reason</text></g><g class="message" data-participant-1="OfficerBP" data-participant-2="DB"><polygon fill="#181818" points="1050.1572,539.1406,1060.1572,543.1406,1050.1572,547.1406,1054.1572,543.1406" style="stroke:#181818;stroke-width:1;"/><line style="stroke:#181818;stroke-width:1;" x1="626.3213" x2="1056.1572" y1="543.1406" y2="543.1406"/><text fill="#000000" font-family="sans-serif" font-size="13" lengthAdjust="spacing" textLength="249.9961" x="633.3213" y="538.2842">set entry.status=REJECTED + save reason</text></g><g class="message" data-participant-1="OfficerBP" data-participant-2="UI"><polygon fill="#181818" points="341.9971,569.4922,331.9971,573.4922,341.9971,577.4922,337.9971,573.4922" style="stroke:#181818;stroke-width:1;"/><line style="stroke:#181818;stroke-width:1;stroke-dasharray:2,2;" x1="335.9971" x2="625.3213" y1="573.4922" y2="573.4922"/><text fill="#000000" font-family="sans-serif" font-size="13" lengthAdjust="spacing" textLength="148.8525" x="347.9971" y="568.6357">redirect back to approvals</text></g><!--SRC=[XPFTYjim48NlzHH3BiekPJVtWHRYsYmfWPZ4QIcb1CMUfEfwRLKppfAtx_X7zZh9qYiBpT7HcKzZDfmZh0u7aw83XoU3hmGQzbN-35JjNmoHAGlGHGRQMbUUaAOE_s3A15YmCqXAwPHB1vFEPWAQlAMosh59ZTK5m-Gxxc6xQEhRnRZa8mHvXTQPWj-w1F5O70Pm5qZ2pH1m2kEDIBATxnkJC1YVJimBBijZK-lM6tGdkKWf7-FXioISmSgYM9VjvhG5e7DIsqMjwDFDu2bAGBIPAOvli97g9RK-36Rmjq9tliWA7tkKqjd3sDaXLwwWzroxe4xkbjXzGh3wUDqEOIuFvo-hTzFSfCymRryMDaqTi-l-ujKcyGEmequ6huP_DsxddSdevw_hTWyo5wZJJjNSw50pUl3m0IgRrHkDu95OSqMVvd6yNdsBmcl3Jdq1i3q6T_5ydIpco-MFdNUO-iNzJMgPSJMHlHOAN0xyPAPpXhB_Bzg1zuqhW0kofh0LTxewa3H9yka9hvlA01ZWDkBMuNt2CYgjzH1XO4F8Ouphw6lq9Ob2EKLQtlVMqV-ZaD5I_m00]--></g></svg>