<svg xmlns="http://www.w3.org/2000/svg" xmlns:xlink="http://www.w3.org/1999/xlink" contentStyleType="text/css" data-diagram-type="DESCRIPTION" height="449px" preserveAspectRatio="none" style="width:2289px;height:449px;background:#FFFFFF;" version="1.1" viewBox="0 0 2289 449" width="2289px" zoomAndPan="magnify"><title>AUIB VMS - Use Case Diagram (System)</title><defs/><g><g class="title" data-source-line="2"><text fill="#000000" font-family="sans-serif" font-size="14" font-weight="bold" lengthAdjust="spacing" textLength="266.8613" x="1004.0693" y="24.5332">AUIB VMS - Use Case Diagram (System)</text></g><!--cluster VMS (system boundary)--><g class="cluster" data-entity="VMS .system boundary." data-source-line="11" data-uid="ent0007" id="cluster_VMS .system boundary."><rect fill="none" height="133" rx="2.5" ry="2.5" style="stroke:#181818;stroke-width:1;" width="2276" x="7" y="186.1094"/><text fill="#000000" font-family="sans-serif" font-size="14" font-weight="bold" lengthAdjust="spacing" textLength="159.4756" x="1065.2622" y="202.6426">VMS (system boundary)</text></g><!--entity UC_CreateEvent--><g class="entity" data-entity="UC_CreateEvent" data-source-line="12" data-uid="ent0008" id="entity_UC_CreateEvent"><ellipse cx="446.0573" cy="272.8239" fill="#F1F1F1" rx="84.5573" ry="26.2145" style="stroke:#181818;stroke-width:0.5;"/><text fill="#000000" font-family="sans-serif" font-size="14" lengthAdjust="spacing" textLength="81.71" x="405.2023" y="266.8415">Create Event</text><text fill="#000000" font-family="sans-serif" font-size="14" lengthAdjust="spacing" textLength="123.7305" x="384.192" y="284.4508">(parse attendee list)</text></g><!--entity UC_GenerateLinks--><g class="entity" data-entity="UC_GenerateLinks" data-source-line="13" data-uid="ent0009" id="entity_UC_GenerateLinks"><ellipse cx="715.7723" cy="272.7638" fill="#F1F1F1" rx="93.7723" ry="21.1545" style="stroke:#181818;stroke-width:0.5;"/><text fill="#000000" font-family="sans-serif" font-size="14" lengthAdjust="spacing" textLength="158.7646" x="636.39" y="278.0685">Generate Volunteer Links</text></g><!--entity UC_SendEmails--><g class="entity" data-entity="UC_SendEmails" data-source-line="14" data-uid="ent0010" id="entity_UC_SendEmails"><ellipse cx="2180.2164" cy="272.8527" fill="#F1F1F1" rx="86.7164" ry="19.7433" style="stroke:#181818;stroke-width:0.5;"/><text fill="#000000" font-family="sans-serif" font-size="14" lengthAdjust="spacing" textLength="142.4131" x="2109.0099" y="278.1573">Send Volunteer Emails</text></g><!--entity UC_SignIn--><g class="entity" data-entity="UC_SignIn" data-source-line="15" data-uid="ent0011" id="entity_UC_SignIn"><ellipse cx="96.2377" cy="272.5569" fill="#F1F1F1" rx="72.7377" ry="16.9475" style="stroke:#181818;stroke-width:0.5;"/><text fill="#000000" font-family="sans-serif" font-size="14" lengthAdjust="spacing" textLength="108.1719" x="42.1518" y="277.8616">Sign In via Token</text></g><!--entity UC_StopSign--><g class="entity" data-entity="UC_StopSign" data-source-line="16" data-uid="ent0012" id="entity_UC_StopSign"><ellipse cx="264.8335" cy="272.5611" fill="#F1F1F1" rx="61.3335" ry="15.4517" style="stroke:#181818;stroke-width:0.5;"/><text fill="#000000" font-family="sans-serif" font-size="14" lengthAdjust="spacing" textLength="82.4961" x="223.5855" y="277.8658">Stop Session</text></g><!--entity UC_ApproveTimelog--><g class="entity" data-entity="UC_ApproveTimelog" data-source-line="17" data-uid="ent0013" id="entity_UC_ApproveTimelog"><ellipse cx="941.1489" cy="272.7392" fill="#F1F1F1" rx="96.1489" ry="21.6298" style="stroke:#181818;stroke-width:0.5;"/><text fill="#000000" font-family="sans-serif" font-size="14" lengthAdjust="spacing" textLength="164.1787" x="859.0596" y="278.0439">Approve / Reject Timelogs</text></g><!--entity UC_ManageUsers--><g class="entity" data-entity="UC_ManageUsers" data-source-line="18" data-uid="ent0014" id="entity_UC_ManageUsers"><ellipse cx="1176.9588" cy="272.4011" fill="#F1F1F1" rx="104.4588" ry="23.2918" style="stroke:#181818;stroke-width:0.5;"/><text fill="#000000" font-family="sans-serif" font-size="14" lengthAdjust="spacing" textLength="182.8203" x="1085.5486" y="277.7058">Manage Users (CRUD, roles)</text></g><!--entity UC_Settings--><g class="entity" data-entity="UC_Settings" data-source-line="19" data-uid="ent0015" id="entity_UC_Settings"><ellipse cx="1918.958" cy="272.401" fill="#F1F1F1" rx="139.458" ry="30.2916" style="stroke:#181818;stroke-width:0.5;"/><text fill="#000000" font-family="sans-serif" font-size="14" lengthAdjust="spacing" textLength="258.3232" x="1789.7964" y="277.7057">Manage System Settings (SMTP, sender)</text></g><!--entity UC_ViewEmailLogs--><g class="entity" data-entity="UC_ViewEmailLogs" data-source-line="20" data-uid="ent0016" id="entity_UC_ViewEmailLogs"><ellipse cx="1672.938" cy="272.697" fill="#F1F1F1" rx="70.938" ry="16.5876" style="stroke:#181818;stroke-width:0.5;"/><text fill="#000000" font-family="sans-serif" font-size="14" lengthAdjust="spacing" textLength="103.4893" x="1621.1934" y="278.0017">View Email Logs</text></g><!--entity UC_PasswordReset--><g class="entity" data-entity="UC_PasswordReset" data-source-line="21" data-uid="ent0017" id="entity_UC_PasswordReset"><ellipse cx="1441.8348" cy="272.4763" fill="#F1F1F1" rx="124.8348" ry="27.367" style="stroke:#181818;stroke-width:0.5;"/><text fill="#000000" font-family="sans-serif" font-size="14" lengthAdjust="spacing" textLength="227.2061" x="1328.2317" y="277.781">Password Reset (request &amp; set new)</text></g><!--entity Volunteer--><g class="entity" data-entity="Volunteer" data-source-line="4" data-uid="ent0002" id="entity_Volunteer"><ellipse cx="164.9653" cy="52.6094" fill="#F1F1F1" rx="8" ry="8" style="stroke:#181818;stroke-width:0.5;"/><path d="M164.9653,60.6094 L164.9653,87.6094 M151.9653,68.6094 L177.9653,68.6094 M164.9653,87.6094 L151.9653,102.6094 M164.9653,87.6094 L177.9653,102.6094" fill="none" style="stroke:#181818;stroke-width:0.5;"/><text fill="#000000" font-family="sans-serif" font-size="14" lengthAdjust="spacing" textLength="59.9307" x="135" y="118.6426">Volunteer</text></g><!--entity ClubLeader--><g class="entity" data-entity="ClubLeader" data-source-line="5" data-uid="ent0003" id="entity_ClubLeader"><ellipse cx="1177.1929" cy="52.6094" fill="#F1F1F1" rx="8" ry="8" style="stroke:#181818;stroke-width:0.5;"/><path d="M1177.1929,60.6094 L1177.1929,87.6094 M1164.1929,68.6094 L1190.1929,68.6094 M1177.1929,87.6094 L1164.1929,102.6094 M1177.1929,87.6094 L1190.1929,102.6094" fill="none" style="stroke:#181818;stroke-width:0.5;"/><text fill="#000000" font-family="sans-serif" font-size="14" lengthAdjust="spacing" textLength="72.3857" x="1141" y="118.6426">ClubLeader</text></g><!--entity Officer--><g class="entity" data-entity="Officer" data-source-line="6" data-uid="ent0004" id="entity_Officer"><ellipse cx="815.1138" cy="52.6094" fill="#F1F1F1" rx="8" ry="8" style="stroke:#181818;stroke-width:0.5;"/><path d="M815.1138,60.6094 L815.1138,87.6094 M802.1138,68.6094 L828.1138,68.6094 M815.1138,87.6094 L802.1138,102.6094 M815.1138,87.6094 L828.1138,102.6094" fill="none" style="stroke:#181818;stroke-width:0.5;"/><text fill="#000000" font-family="sans-serif" font-size="14" lengthAdjust="spacing" textLength="41.2275" x="794.5" y="118.6426">Officer</text></g><!--entity Admin--><g class="entity" data-entity="Admin" data-source-line="7" data-uid="ent0005" id="entity_Admin"><ellipse cx="1672.8413" cy="52.6094" fill="#F1F1F1" rx="8" ry="8" style="stroke:#181818;stroke-width:0.5;"/><path d="M1672.8413,60.6094 L1672.8413,87.6094 M1659.8413,68.6094 L1685.8413,68.6094 M1672.8413,87.6094 L1659.8413,102.6094 M1672.8413,87.6094 L1685.8413,102.6094" fill="none" style="stroke:#181818;stroke-width:0.5;"/><text fill="#000000" font-family="sans-serif" font-size="14" lengthAdjust="spacing" textLength="39.6826" x="1653" y="118.6426">Admin</text></g><!--entity SMTP--><g class="entity" data-entity="SMTP" data-source-line="9" data-uid="ent0006" id="entity_SMTP"><ellipse cx="2180.1724" cy="374.6094" fill="#F1F1F1" rx="8" ry="8" style="stroke:#181818;stroke-width:0.5;"/><path d="M2180.1724,382.6094 L2180.1724,409.6094 M2167.1724,390.6094 L2193.1724,390.6094 M2180.1724,409.6094 L2167.1724,424.6094 M2180.1724,409.6094 L2193.1724,424.6094" fill="none" style="stroke:#181818;stroke-width:0.5;"/><text fill="#000000" font-family="sans-serif" font-size="14" lengthAdjust="spacing" textLength="72.3447" x="2144" y="440.6426">MailSystem</text></g><!--link Volunteer to UC_SignIn--><g class="link" data-entity-1="Volunteer" data-entity-2="UC_SignIn" data-source-line="25" data-uid="lnk18" id="link_Volunteer_UC_SignIn"><path d="M150.87,122.5094 C135.81,163.4294 114.753,220.6589 103.973,249.9389" fill="none" id="Volunteer-to-UC_SignIn" style="stroke:#181818;stroke-width:1;"/><polygon fill="#181818" points="101.9,255.5694,108.7632,248.5056,103.6275,250.8773,101.2558,245.7416,101.9,255.5694" style="stroke:#181818;stroke-width:1;"/></g><!--link Volunteer to UC_StopSign--><g class="link" data-entity-1="Volunteer" data-entity-2="UC_StopSign" data-source-line="26" data-uid="lnk19" id="link_Volunteer_UC_StopSign"><path d="M185.48,122.5094 C207.65,164.0794 239.055,222.976 254.345,251.626" fill="none" id="Volunteer-to-UC_StopSign" style="stroke:#181818;stroke-width:1;"/><polygon fill="#181818" points="257.17,256.9194,256.4614,247.096,254.8159,252.5082,249.4036,250.8627,257.17,256.9194" style="stroke:#181818;stroke-width:1;"/></g><!--link Officer to UC_CreateEvent--><g class="link" data-entity-1="Officer" data-entity-2="UC_CreateEvent" data-source-line="28" data-uid="lnk20" id="link_Officer_UC_CreateEvent"><path d="M794.26,92.4094 C756.01,107.9394 672.06,142.9594 604,178.1094 C560.95,200.3394 518.4097,225.9621 486.8197,245.6821" fill="none" id="Officer-to-UC_CreateEvent" style="stroke:#181818;stroke-width:1;"/><polygon fill="#181818" points="481.73,248.8594,491.4827,247.4867,485.9714,246.2117,487.2464,240.7004,481.73,248.8594" style="stroke:#181818;stroke-width:1;"/></g><!--link Officer to UC_GenerateLinks--><g class="link" data-entity-1="Officer" data-entity-2="UC_GenerateLinks" data-source-line="29" data-uid="lnk21" id="link_Officer_UC_GenerateLinks"><path d="M794.73,122.5094 C774.02,161.7194 745.4917,215.7537 729.3017,246.4137" fill="none" id="Officer-to-UC_GenerateLinks" style="stroke:#181818;stroke-width:1;"/><polygon fill="#181818" points="726.5,251.7194,734.2397,245.6286,728.8347,247.2979,727.1654,241.893,726.5,251.7194" style="stroke:#181818;stroke-width:1;"/></g><!--link Officer to UC_ApproveTimelog--><g class="link" data-entity-1="Officer" data-entity-2="UC_ApproveTimelog" data-source-line="30" data-uid="lnk22" id="link_Officer_UC_ApproveTimelog"><path d="M835.52,114.6494 C861.4,153.1494 901.803,213.2897 923.943,246.2297" fill="none" id="Officer-to-UC_ApproveTimelog" style="stroke:#181818;stroke-width:1;"/><polygon fill="#181818" points="927.29,251.2094,925.5893,241.5085,924.5008,247.0596,918.9497,245.9712,927.29,251.2094" style="stroke:#181818;stroke-width:1;"/></g><!--link Officer to UC_ViewEmailLogs--><g class="link" data-entity-1="Officer" data-entity-2="UC_ViewEmailLogs" data-source-line="31" data-uid="lnk23" id="link_Officer_UC_ViewEmailLogs"><path d="M835.86,88.7694 C904.25,103.8294 1128.08,151.2694 1316,170.1094 C1345.64,173.0794 1556.8,165.9594 1584,178.1094 C1620.83,194.5594 1646.6535,229.0344 1660.6435,251.0644" fill="none" id="Officer-to-UC_ViewEmailLogs" style="stroke:#181818;stroke-width:1;"/><polygon fill="#181818" points="1663.86,256.1294,1662.4119,246.3876,1661.1796,251.9085,1655.6586,250.6762,1663.86,256.1294" style="stroke:#181818;stroke-width:1;"/></g><!--link ClubLeader to UC_ManageUsers--><g class="link" data-entity-1="ClubLeader" data-entity-2="UC_ManageUsers" data-source-line="33" data-uid="lnk24" id="link_ClubLeader_UC_ManageUsers"><path d="M1177,122.5094 C1177,160.5394 1177,211.5094 1177,242.8794" fill="none" id="ClubLeader-to-UC_ManageUsers" style="stroke:#181818;stroke-width:1;"/><polygon fill="#181818" points="1177,248.8794,1181,239.8794,1177,243.8794,1173,239.8794,1177,248.8794" style="stroke:#181818;stroke-width:1;"/></g><!--link Admin to UC_ManageUsers--><g class="link" data-entity-1="Admin" data-entity-2="UC_ManageUsers" data-source-line="35" data-uid="lnk25" id="link_Admin_UC_ManageUsers"><path d="M1652.7,91.8394 C1606.59,109.0494 1490.15,150.5094 1389,170.1094 C1349.58,177.7494 1336.42,163.5394 1299,178.1094 C1258.72,193.7894 1224.8281,222.8523 1202.2381,245.1723" fill="none" id="Admin-to-UC_ManageUsers" style="stroke:#181818;stroke-width:1;"/><polygon fill="#181818" points="1197.97,249.3894,1207.1835,245.9092,1201.5267,245.8752,1201.5607,240.2184,1197.97,249.3894" style="stroke:#181818;stroke-width:1;"/></g><!--link Admin to UC_Settings--><g class="link" data-entity-1="Admin" data-entity-2="UC_Settings" data-source-line="36" data-uid="lnk26" id="link_Admin_UC_Settings"><path d="M1693.13,99.4494 C1734.33,130.8494 1824.0281,199.2222 1876.8081,239.4522" fill="none" id="Admin-to-UC_Settings" style="stroke:#181818;stroke-width:1;"/><polygon fill="#181818" points="1881.58,243.0894,1876.847,234.4523,1877.6034,240.0584,1871.9974,240.8148,1881.58,243.0894" style="stroke:#181818;stroke-width:1;"/></g><!--link Admin to UC_ViewEmailLogs--><g class="link" data-entity-1="Admin" data-entity-2="UC_ViewEmailLogs" data-source-line="37" data-uid="lnk27" id="link_Admin_UC_ViewEmailLogs"><path d="M1673,122.5094 C1673,163.6494 1673,220.9494 1673,250.0294" fill="none" id="Admin-to-UC_ViewEmailLogs" style="stroke:#181818;stroke-width:1;"/><polygon fill="#181818" points="1673,256.0294,1677,247.0294,1673,251.0294,1669,247.0294,1673,256.0294" style="stroke:#181818;stroke-width:1;"/></g><!--link UC_CreateEvent to UC_GenerateLinks--><g class="link" data-entity-1="UC_CreateEvent" data-entity-2="UC_GenerateLinks" data-source-line="40" data-uid="lnk28" id="link_UC_CreateEvent_UC_GenerateLinks"><path d="M530.69,272.6094 C559.61,272.6094 586.12,272.6094 615.75,272.6094" fill="none" id="UC_CreateEvent-to-UC_GenerateLinks" style="stroke:#181818;stroke-width:1;stroke-dasharray:7,7;"/><polygon fill="#181818" points="621.75,272.6094,612.75,268.6094,616.75,272.6094,612.75,276.6094,621.75,272.6094" style="stroke:#181818;stroke-width:1;"/><text fill="#000000" font-family="sans-serif" font-size="13" lengthAdjust="spacing" textLength="55.6563" x="548.75" y="266.1045">&#171;include&#187;</text></g><!--link UC_GenerateLinks to UC_SendEmails--><g class="link" data-entity-1="UC_GenerateLinks" data-entity-2="UC_SendEmails" data-source-line="41" data-uid="lnk29" id="link_UC_GenerateLinks_UC_SendEmails"><path d="M732.54,251.5894 C752.19,228.4994 787.35,192.7494 827,178.1094 C915.05,145.6094 1991.33,145.3194 2076,178.1094 C2114.9,193.1794 2144.5606,225.5399 2162.4006,248.5199" fill="none" id="UC_GenerateLinks-to-UC_SendEmails" style="stroke:#181818;stroke-width:1;stroke-dasharray:7,7;"/><polygon fill="#181818" points="2166.08,253.2594,2163.7206,243.6973,2163.0139,249.3098,2157.4013,248.6031,2166.08,253.2594" style="stroke:#181818;stroke-width:1;"/><text fill="#000000" font-family="sans-serif" font-size="13" lengthAdjust="spacing" textLength="55.6563" x="1325.5" y="166.6045">&#171;include&#187;</text></g><!--link UC_PasswordReset to UC_SendEmails--><g class="link" data-entity-1="UC_PasswordReset" data-entity-2="UC_SendEmails" data-source-line="42" data-uid="lnk30" id="link_UC_PasswordReset_UC_SendEmails"><path d="M1469.75,245.5794 C1495.7,222.3294 1536.79,190.4894 1579.5,177.1094 C1592.81,172.9394 1993.54,146.1394 2076,178.1094 C2114.9,193.1894 2144.5484,225.5517 2162.3984,248.5217" fill="none" id="UC_PasswordReset-to-UC_SendEmails" style="stroke:#181818;stroke-width:1;stroke-dasharray:7,7;"/><polygon fill="#181818" points="2166.08,253.2594,2163.716,243.6984,2163.012,249.3113,2157.3991,248.6073,2166.08,253.2594" style="stroke:#181818;stroke-width:1;"/><text fill="#000000" font-family="sans-serif" font-size="13" lengthAdjust="spacing" textLength="55.6563" x="1580.5" y="166.6045">&#171;include&#187;</text></g><!--link UC_SendEmails to SMTP--><g class="link" data-entity-1="UC_SendEmails" data-entity-2="SMTP" data-source-line="45" data-uid="lnk31" id="link_UC_SendEmails_SMTP"><path d="M2180,292.3094 C2180,311.4794 2180,335.8294 2180,360.0794" fill="none" id="UC_SendEmails-to-SMTP" style="stroke:#181818;stroke-width:1;"/><polygon fill="#181818" points="2180,366.0794,2184,357.0794,2180,361.0794,2176,357.0794,2180,366.0794" style="stroke:#181818;stroke-width:1;"/></g><!--SRC=[XLHDRzim3BthLn0vj0xGTFUX292vnL0WmOeuoMb0eTgieLQMCabELWpxxzENaqWki8jXlaVI91zfmmn7M6mVly5kLS4CjXgXfFPnpsYhQ0T5zQ4DTbD2Q6saWftalJ28Ajebxr-MI9iJyEFrbTKdQz5qJ0onAyfuI0TKGxNQF16Yi3PKjBQAYQkWq85_aRregFgOJk0F0UWrrgwgRVbSAgG67mueZCio2JPuuASezbHPFseCYWOHEDDcEaapV4U1oiOicNZNFiU0dBi3JsQ1bStvqDacGfGpBo82auUmLZoAu6vVmRuV68MDV4UHkngvzpxUsHfGeTPCvdwB_Lx90svOXrostZj2y0NM-6O72f7CgrbHGLkq6glGGR0X04MvtjxVW98SzNJKkJ5Cj4bKLF945KxG6z1ky2fFi6Duz0DQofZ58M5ci1nN-aIrFahLh55Zq7b08425mbyzQWDNu4o1H_l9luHSmq9hMJDgxEGqESipcytFWdo2n-aJ4XTu82xsBQUIHSh9LAQSJUP1oFcA1eSBgGZnL_GPan234YcQVUdQhc3D-yOj2_vsLm8AUPnMTbwtuoxXAzpTiP1XFYSZ-dQU7Sh8FrNsF_wstBXcpAfbVqYkJf96k3xzl-GV]--></g></svg>